<svg xmlns="http://www.w3.org/2000/svg" width="409.424" height="512" viewBox="0 0 409.424 512">
  <g id="hotel" transform="translate(-51.288 0)">
    <path id="Path_425" data-name="Path 425" d="M406.312,482V97.868h-39.99V32.9H271V0H241V32.9H145.678V97.868h-39.99V482h-54.4v30H460.712V482ZM175.678,62.9H336.322V97.868H175.678ZM316.312,482H271V372.371h45.312ZM241,482H195.688V372.371H241Zm105.312,0V342.371H165.688V482h-30V127.868H376.312V482Z" fill="#7d7d7d"/>
    <path id="Path_426" data-name="Path 426" d="M165.688,158.205h30v30h-30Z" fill="#7d7d7d"/>
    <path id="Path_427" data-name="Path 427" d="M316.312,158.205h30v30h-30Z" fill="#7d7d7d"/>
    <path id="Path_428" data-name="Path 428" d="M241,158.205h30v30H241Z" fill="#7d7d7d"/>
    <path id="Path_429" data-name="Path 429" d="M165.688,218.541h30v30h-30Z" fill="#7d7d7d"/>
    <path id="Path_430" data-name="Path 430" d="M316.312,218.541h30v30h-30Z" fill="#7d7d7d"/>
    <path id="Path_431" data-name="Path 431" d="M241,218.541h30v30H241Z" fill="#7d7d7d"/>
    <path id="Path_432" data-name="Path 432" d="M165.688,278.878h30v30h-30Z" fill="#7d7d7d"/>
    <path id="Path_433" data-name="Path 433" d="M316.312,278.878h30v30h-30Z" fill="#7d7d7d"/>
    <path id="Path_434" data-name="Path 434" d="M241,278.878h30v30H241Z" fill="#7d7d7d"/>
  </g>
</svg>
