<svg id="network" xmlns="http://www.w3.org/2000/svg" width="120.637" height="120.638" viewBox="0 0 120.637 120.638">
  <g id="Group_432" data-name="Group 432" transform="translate(104.553 24.127)">
    <g id="Group_431" data-name="Group 431">
      <path id="Path_357" data-name="Path 357" d="M451.776,102.4a8.042,8.042,0,1,0,8.042,8.042A8.05,8.05,0,0,0,451.776,102.4Zm0,12.064a4.021,4.021,0,1,1,4.021-4.021A4.025,4.025,0,0,1,451.776,114.464Z" transform="translate(-443.734 -102.4)" fill="#04357a"/>
    </g>
  </g>
  <g id="Group_434" data-name="Group 434" transform="translate(0 90.478)">
    <g id="Group_433" data-name="Group 433">
      <path id="Path_358" data-name="Path 358" d="M8.042,384a8.042,8.042,0,1,0,8.042,8.042A8.051,8.051,0,0,0,8.042,384Zm0,12.064a4.021,4.021,0,1,1,4.021-4.021A4.025,4.025,0,0,1,8.042,396.064Z" transform="translate(0 -384)" fill="#04357a"/>
    </g>
  </g>
  <g id="Group_436" data-name="Group 436" transform="translate(88.466 18.094)">
    <g id="Group_435" data-name="Group 435">
      <path id="Path_359" data-name="Path 359" d="M395.693,85.367l-17.346-8.374a2.01,2.01,0,1,0-1.747,3.621l17.346,8.374a2.01,2.01,0,0,0,1.747-3.621Z" transform="translate(-375.463 -76.792)" fill="#04357a"/>
    </g>
  </g>
  <g id="Group_438" data-name="Group 438" transform="translate(82.436 104.552)">
    <g id="Group_437" data-name="Group 437">
      <path id="Path_360" data-name="Path 360" d="M357.909,443.733a8.043,8.043,0,1,0,8.042,8.043A8.051,8.051,0,0,0,357.909,443.733Zm0,12.064a4.021,4.021,0,1,1,4.021-4.021A4.025,4.025,0,0,1,357.909,455.8Z" transform="translate(-349.867 -443.733)" fill="#04357a"/>
    </g>
  </g>
  <g id="Group_440" data-name="Group 440" transform="translate(66.35 98.518)">
    <g id="Group_439" data-name="Group 439">
      <path id="Path_361" data-name="Path 361" d="M301.826,426.7l-17.346-8.374a2.01,2.01,0,1,0-1.747,3.621l17.346,8.374a2.01,2.01,0,1,0,1.747-3.621Z" transform="translate(-281.596 -418.124)" fill="#04357a"/>
    </g>
  </g>
  <g id="Group_442" data-name="Group 442" transform="translate(52.276 54.287)">
    <g id="Group_441" data-name="Group 441">
      <path id="Path_362" data-name="Path 362" d="M229.909,230.4a8.042,8.042,0,1,0,8.042,8.042A8.05,8.05,0,0,0,229.909,230.4Zm0,12.064a4.021,4.021,0,1,1,4.021-4.021A4.025,4.025,0,0,1,229.909,242.464Z" transform="translate(-221.867 -230.4)" fill="#04357a"/>
    </g>
  </g>
  <g id="Group_444" data-name="Group 444" transform="translate(40.212 46.246)">
    <g id="Group_443" data-name="Group 443">
      <path id="Path_363" data-name="Path 363" d="M187.236,207.08l-13.324-10.385a2.011,2.011,0,1,0-2.473,3.173l13.324,10.385a2.011,2.011,0,1,0,2.473-3.173Z" transform="translate(-170.664 -196.272)" fill="#04357a"/>
    </g>
  </g>
  <g id="Group_446" data-name="Group 446" transform="translate(74.393 52.276)">
    <g id="Group_445" data-name="Group 445">
      <path id="Path_364" data-name="Path 364" d="M337.85,221.867a22.117,22.117,0,1,0,22.117,22.117A22.143,22.143,0,0,0,337.85,221.867Zm0,40.212a18.1,18.1,0,1,1,18.1-18.1A18.115,18.115,0,0,1,337.85,262.079Z" transform="translate(-315.733 -221.867)" fill="#04357a"/>
    </g>
  </g>
  <g id="Group_448" data-name="Group 448" transform="translate(88.468 60.319)">
    <g id="Group_447" data-name="Group 447">
      <path id="Path_365" data-name="Path 365" d="M383.509,256a8.042,8.042,0,1,0,8.042,8.042A8.05,8.05,0,0,0,383.509,256Zm0,12.064a4.021,4.021,0,1,1,4.021-4.021A4.025,4.025,0,0,1,383.509,268.064Z" transform="translate(-375.467 -256)" fill="#04357a"/>
    </g>
  </g>
  <g id="Group_450" data-name="Group 450" transform="translate(84.446 80.425)">
    <g id="Group_449" data-name="Group 449">
      <path id="Path_366" data-name="Path 366" d="M376.3,341.333H364.631A6.156,6.156,0,0,0,358.4,347.4v5.3a2.012,2.012,0,0,0,1,1.741,22,22,0,0,0,22.121,0,2.009,2.009,0,0,0,1-1.739v-5.3A6.156,6.156,0,0,0,376.3,341.333Zm2.21,10.164a18.231,18.231,0,0,1-16.085,0v-4.1a2.134,2.134,0,0,1,2.21-2.043H376.3a2.134,2.134,0,0,1,2.21,2.043v4.1Z" transform="translate(-358.4 -341.333)" fill="#04357a"/>
    </g>
  </g>
  <g id="Group_452" data-name="Group 452" transform="translate(26.138 76.404)">
    <g id="Group_451" data-name="Group 451">
      <path id="Path_367" data-name="Path 367" d="M133.05,324.267a22.117,22.117,0,1,0,22.117,22.117A22.143,22.143,0,0,0,133.05,324.267Zm0,40.212a18.1,18.1,0,1,1,18.1-18.1A18.115,18.115,0,0,1,133.05,364.479Z" transform="translate(-110.933 -324.267)" fill="#04357a"/>
    </g>
  </g>
  <g id="Group_454" data-name="Group 454" transform="translate(40.213 84.446)">
    <g id="Group_453" data-name="Group 453">
      <path id="Path_368" data-name="Path 368" d="M178.709,358.4a8.042,8.042,0,1,0,8.042,8.042A8.05,8.05,0,0,0,178.709,358.4Zm0,12.064a4.021,4.021,0,1,1,4.021-4.021A4.025,4.025,0,0,1,178.709,370.464Z" transform="translate(-170.667 -358.4)" fill="#04357a"/>
    </g>
  </g>
  <g id="Group_456" data-name="Group 456" transform="translate(36.191 104.552)">
    <g id="Group_455" data-name="Group 455">
      <path id="Path_369" data-name="Path 369" d="M171.5,443.733H159.831a6.156,6.156,0,0,0-6.231,6.062v5.3a2.012,2.012,0,0,0,1,1.741,22,22,0,0,0,22.121,0,2.008,2.008,0,0,0,1-1.739v-5.3A6.156,6.156,0,0,0,171.5,443.733Zm2.21,10.164a18.231,18.231,0,0,1-16.085,0v-4.1a2.134,2.134,0,0,1,2.21-2.043H171.5a2.134,2.134,0,0,1,2.21,2.043v4.1Z" transform="translate(-153.6 -443.733)" fill="#04357a"/>
    </g>
  </g>
  <g id="Group_458" data-name="Group 458" transform="translate(0 26.138)">
    <g id="Group_457" data-name="Group 457">
      <path id="Path_370" data-name="Path 370" d="M22.117,110.933A22.117,22.117,0,1,0,44.234,133.05,22.143,22.143,0,0,0,22.117,110.933Zm0,40.213a18.1,18.1,0,1,1,18.1-18.1A18.115,18.115,0,0,1,22.117,151.146Z" transform="translate(0 -110.933)" fill="#04357a"/>
    </g>
  </g>
  <g id="Group_460" data-name="Group 460" transform="translate(14.075 34.181)">
    <g id="Group_459" data-name="Group 459">
      <path id="Path_371" data-name="Path 371" d="M67.776,145.067a8.042,8.042,0,1,0,8.042,8.042A8.05,8.05,0,0,0,67.776,145.067Zm0,12.064a4.021,4.021,0,1,1,4.021-4.021A4.025,4.025,0,0,1,67.776,157.131Z" transform="translate(-59.734 -145.067)" fill="#04357a"/>
    </g>
  </g>
  <g id="Group_462" data-name="Group 462" transform="translate(10.053 54.287)">
    <g id="Group_461" data-name="Group 461">
      <path id="Path_372" data-name="Path 372" d="M60.564,230.4H48.9a6.156,6.156,0,0,0-6.231,6.062v5.3a2.012,2.012,0,0,0,1,1.741,22,22,0,0,0,22.121,0,2.009,2.009,0,0,0,1-1.739v-5.3A6.156,6.156,0,0,0,60.564,230.4Zm2.21,10.164a18.231,18.231,0,0,1-16.085,0v-4.1a2.134,2.134,0,0,1,2.21-2.043H60.563a2.134,2.134,0,0,1,2.21,2.043v4.1Z" transform="translate(-42.667 -230.4)" fill="#04357a"/>
    </g>
  </g>
  <g id="Group_464" data-name="Group 464" transform="translate(48.255)">
    <g id="Group_463" data-name="Group 463">
      <path id="Path_373" data-name="Path 373" d="M226.917,0a22.117,22.117,0,1,0,22.117,22.117A22.143,22.143,0,0,0,226.917,0Zm0,40.213a18.1,18.1,0,1,1,18.1-18.1A18.115,18.115,0,0,1,226.917,40.213Z" transform="translate(-204.8)" fill="#04357a"/>
    </g>
  </g>
  <g id="Group_466" data-name="Group 466" transform="translate(62.33 8.042)">
    <g id="Group_465" data-name="Group 465">
      <path id="Path_374" data-name="Path 374" d="M272.576,34.133a8.042,8.042,0,1,0,8.042,8.043A8.05,8.05,0,0,0,272.576,34.133Zm0,12.064a4.021,4.021,0,1,1,4.021-4.021A4.025,4.025,0,0,1,272.576,46.2Z" transform="translate(-264.534 -34.133)" fill="#04357a"/>
    </g>
  </g>
  <g id="Group_468" data-name="Group 468" transform="translate(58.308 28.149)">
    <g id="Group_467" data-name="Group 467">
      <path id="Path_375" data-name="Path 375" d="M265.363,119.467H253.7a6.156,6.156,0,0,0-6.231,6.062v5.3a2.012,2.012,0,0,0,1,1.741,22,22,0,0,0,22.121,0,2.009,2.009,0,0,0,1-1.739v-5.3A6.156,6.156,0,0,0,265.363,119.467Zm2.21,10.164a18.231,18.231,0,0,1-16.085,0v-4.1a2.134,2.134,0,0,1,2.21-2.043h11.666a2.134,2.134,0,0,1,2.21,2.043v4.1Z" transform="translate(-247.467 -119.467)" fill="#04357a"/>
    </g>
  </g>
  <g id="Group_470" data-name="Group 470" transform="translate(34.323 20.106)">
    <g id="Group_469" data-name="Group 469">
      <path id="Path_376" data-name="Path 376" d="M163.144,86.035a2.013,2.013,0,0,0-2.835-.219L146.375,97.739a2.01,2.01,0,1,0,2.614,3.054L162.922,88.87A2.01,2.01,0,0,0,163.144,86.035Z" transform="translate(-145.671 -85.333)" fill="#04357a"/>
    </g>
  </g>
  <g id="Group_472" data-name="Group 472" transform="translate(80.425 36.194)">
    <g id="Group_471" data-name="Group 471">
      <path id="Path_377" data-name="Path 377" d="M357.016,170.5l-12.064-16.085a2.01,2.01,0,0,0-3.217,2.411L353.8,172.91a2.01,2.01,0,0,0,3.217-2.411Z" transform="translate(-341.333 -153.61)" fill="#04357a"/>
    </g>
  </g>
  <g id="Group_474" data-name="Group 474" transform="translate(64.756 80.238)">
    <g id="Group_473" data-name="Group 473">
      <path id="Path_378" data-name="Path 378" d="M289.683,341.344a2.011,2.011,0,0,0-2.815-.4l-11.231,8.422a2.01,2.01,0,0,0,2.413,3.215l11.231-8.422A2.008,2.008,0,0,0,289.683,341.344Z" transform="translate(-274.833 -340.54)" fill="#04357a"/>
    </g>
  </g>
  <g id="Group_476" data-name="Group 476" transform="translate(12.064 96.51)">
    <g id="Group_475" data-name="Group 475">
      <path id="Path_379" data-name="Path 379" d="M67.285,409.6H53.211a2.011,2.011,0,0,0,0,4.021H67.285a2.011,2.011,0,0,0,0-4.021Z" transform="translate(-51.2 -409.6)" fill="#04357a"/>
    </g>
  </g>
  <g id="Group_478" data-name="Group 478" transform="translate(14.074)">
    <g id="Group_477" data-name="Group 477">
      <path id="Path_380" data-name="Path 380" d="M67.776,0a8.042,8.042,0,1,0,8.042,8.042A8.051,8.051,0,0,0,67.776,0Zm0,12.064A4.021,4.021,0,1,1,71.8,8.042,4.025,4.025,0,0,1,67.776,12.064Z" transform="translate(-59.733)" fill="#04357a"/>
    </g>
  </g>
  <g id="Group_480" data-name="Group 480" transform="translate(20.106 12.064)">
    <g id="Group_479" data-name="Group 479">
      <path id="Path_381" data-name="Path 381" d="M87.345,51.2a2.01,2.01,0,0,0-2.011,2.011V67.285a2.011,2.011,0,1,0,4.021,0V53.211A2.01,2.01,0,0,0,87.345,51.2Z" transform="translate(-85.334 -51.2)" fill="#04357a"/>
    </g>
  </g>
</svg>
