<svg xmlns="http://www.w3.org/2000/svg" width="84.837" height="107.888" viewBox="0 0 84.837 107.888">
  <g id="location" transform="translate(1.5 1.5)">
    <path id="Path_288" data-name="Path 288" d="M173.278,96a21.278,21.278,0,1,0,21.278,21.278A21.3,21.3,0,0,0,173.278,96Zm11.457,31.1a3.273,3.273,0,0,1-3.43,3.27,3.334,3.334,0,0,1-3.117-3.362v-5.432a1.023,1.023,0,0,0-1.023-1.023H169.39a1.023,1.023,0,0,0-1.023,1.023v5.432a3.334,3.334,0,0,1-3.117,3.362,3.273,3.273,0,0,1-3.43-3.27V107.549a3.334,3.334,0,0,1,3.117-3.362,3.273,3.273,0,0,1,3.43,3.27v5.524A1.023,1.023,0,0,0,169.39,114h7.774a1.023,1.023,0,0,0,1.023-1.023v-5.432a3.334,3.334,0,0,1,3.117-3.362,3.273,3.273,0,0,1,3.43,3.27Z" transform="translate(-132.359 -76.359)" fill="none" stroke="#fff" stroke-width="3"/>
    <path id="Path_289" data-name="Path 289" d="M96.918,0A40.965,40.965,0,0,0,56,40.918c0,16.1,9.3,31.738,19.586,44.043A142.535,142.535,0,0,0,94.9,104.055a3.273,3.273,0,0,0,4.035,0,142.535,142.535,0,0,0,19.316-19.095c10.286-12.3,19.586-27.939,19.586-44.043A40.965,40.965,0,0,0,96.918,0Zm0,68.743a27.825,27.825,0,1,1,27.825-27.825A27.856,27.856,0,0,1,96.918,68.743Z" transform="translate(-56)" fill="none" stroke="#fff" stroke-width="3"/>
  </g>
</svg>
