<svg xmlns="http://www.w3.org/2000/svg" width="130.2" height="130.8" viewBox="0 0 130.2 130.8">
  <g id="borrow" transform="translate(-1 -1)">
    <path id="Path_419" data-name="Path 419" d="M43.933,47.933H47.4A3.47,3.47,0,0,1,50.867,51.4h3.467A6.94,6.94,0,0,0,47.4,44.467V41H43.933v3.467a6.933,6.933,0,1,0,0,13.867H47.4a3.467,3.467,0,1,1,0,6.933H43.933A3.47,3.47,0,0,1,40.467,61.8V60.067H37V61.8a6.94,6.94,0,0,0,6.933,6.933V72.2H47.4V68.733a6.933,6.933,0,1,0,0-13.867H43.933a3.467,3.467,0,0,1,0-6.933Z" transform="translate(42.139 52.667)" fill="#04357a"/>
    <path id="Path_420" data-name="Path 420" d="M107.994,77.759l-7.129-6.269L111.3,57.5a8.755,8.755,0,0,0,1.721-5.195,8.648,8.648,0,0,0-8.617-8.662,6.841,6.841,0,0,0-5.394,2.9c-.939,1.078-1.314,1.427-2.152,1.427s-1.213-.349-2.154-1.427a6.455,6.455,0,0,0-10.782,0c-.935,1.076-1.31,1.425-2.146,1.425s-1.209-.349-2.144-1.425a6.833,6.833,0,0,0-5.388-2.906,8.648,8.648,0,0,0-8.617,8.662,8.753,8.753,0,0,0,1.723,5.2L77.789,71.49,70.66,77.759a27.528,27.528,0,0,0-9.188,17.858H54.858V93.452A23.839,23.839,0,0,0,41.566,72.083,19.5,19.5,0,0,0,52.577,56.64h.129a8.633,8.633,0,0,0,6.92-13.774A24.845,24.845,0,0,0,36.546,9H25.775A24.842,24.842,0,0,0,2.7,42.867,8.634,8.634,0,0,0,9.619,56.64h.125A19.5,19.5,0,0,0,20.755,72.083,23.839,23.839,0,0,0,7.463,93.452v1.91l-3.346,1.68a5.684,5.684,0,0,0,0,10.143l18.426,9.259V108.61H63.282a27.376,27.376,0,0,0,25.384,17.323h1.321a27.517,27.517,0,0,0,18.008-48.174ZM52.706,52.309V43.647a4.331,4.331,0,0,1,0,8.662Zm-43.089,0a4.331,4.331,0,0,1,0-8.662Zm0-16.758v3.766a8.544,8.544,0,0,0-3.372.693A20.544,20.544,0,0,1,25.775,13.331H36.546A20.544,20.544,0,0,1,56.075,40.009a8.488,8.488,0,0,0-3.369-.693V34.985H50.552a8.875,8.875,0,0,1-8.617-6.767l-.623-2.469Zm4.309,18.924V38.751l24.46-7.564A13.179,13.179,0,0,0,48.4,39.141l0,15.333a15.137,15.137,0,0,1-15.08,15.158H29.006A15.137,15.137,0,0,1,13.926,54.474ZM38.914,75.6l-1.879,4.79-4.755-6.371A19.2,19.2,0,0,1,38.914,75.6ZM30.04,74.019,25.286,80.39,23.407,75.6A19.2,19.2,0,0,1,30.04,74.019Zm-10.4,3.792L24.109,89.19l4.9-6.566v8.662h4.309V82.625l4.9,6.566,4.466-11.379a19.483,19.483,0,0,1,7.872,15.641v2.165H22.543V87.783L11.785,93.19a19.48,19.48,0,0,1,7.859-15.379Zm-1.409,26.468v5.158L6.045,103.311a1.342,1.342,0,0,1,0-2.395L18.235,94.79v5.158H61.4a27.517,27.517,0,0,0,.558,4.331ZM70.8,54.907a4.372,4.372,0,0,1-.862-2.6,4.324,4.324,0,0,1,4.309-4.331c.836,0,1.209.349,2.144,1.425a6.45,6.45,0,0,0,10.778,0c.937-1.076,1.31-1.425,2.146-1.425s1.213.349,2.152,1.427a6.46,6.46,0,0,0,10.787,0c.941-1.078,1.314-1.427,2.154-1.427a4.324,4.324,0,0,1,4.309,4.331,4.384,4.384,0,0,1-.86,2.6L96.867,69.632H81.787Zm19.189,66.7H88.668A23.183,23.183,0,0,1,73.5,81.018l8.025-7.055H97.135l8.025,7.055A23.183,23.183,0,0,1,89.989,121.6Z" transform="translate(0 5.867)" fill="#04357a"/>
    <path id="Path_421" data-name="Path 421" d="M80.733,2.733a5.19,5.19,0,0,0-4.909,3.559L72.533,3.659A12.183,12.183,0,0,0,64.953,1H49.533a3.47,3.47,0,0,0-3.467,3.467,6.862,6.862,0,0,0,.964,3.467H35.667a5.183,5.183,0,0,0-4.819,7.134,5.171,5.171,0,0,0,0,10A5.156,5.156,0,0,0,34.315,32a5.183,5.183,0,0,0,4.819,7.134h25.82a12.176,12.176,0,0,0,7.58-2.659l3.292-2.633A5.19,5.19,0,0,0,80.733,37.4H89.4V2.733Zm-5.2,26.9-5.167,4.134a8.7,8.7,0,0,1-5.413,1.9H39.133a1.733,1.733,0,1,1,0-3.467h15.6V28.733H35.667a1.733,1.733,0,0,1,0-3.467H54.733V21.8H32.2a1.733,1.733,0,0,1,0-3.467H54.733V14.867H35.667a1.733,1.733,0,0,1,0-3.467H59.216l1.645,1.647a12.06,12.06,0,0,0,8.58,3.553h2.626V13.133H69.441A8.617,8.617,0,0,1,63.312,10.6L60.651,7.933H53a3.47,3.47,0,0,1-3.467-3.467h15.42a8.691,8.691,0,0,1,5.413,1.9L75.533,10.5Zm10.4,4.3h-5.2A1.735,1.735,0,0,1,79,32.2V7.933A1.735,1.735,0,0,1,80.733,6.2h5.2Z" transform="translate(41.8 0)" fill="#04357a"/>
    <path id="Path_422" data-name="Path 422" d="M21.2,27.467A1.735,1.735,0,0,1,22.934,29.2H26.4a5.2,5.2,0,0,0-10.4,0h3.467A1.735,1.735,0,0,1,21.2,27.467Z" transform="translate(17.09 25.963)" fill="#04357a"/>
    <path id="Path_423" data-name="Path 423" d="M13.2,27.467A1.735,1.735,0,0,1,14.934,29.2H18.4A5.2,5.2,0,1,0,8,29.2h3.467A1.735,1.735,0,0,1,13.2,27.467Z" transform="translate(5.134 25.963)" fill="#04357a"/>
    <path id="Path_424" data-name="Path 424" d="M27.333,30.733V29H10v1.733a8.667,8.667,0,1,0,17.333,0Zm-13.57,1.733H23.57a5.2,5.2,0,0,1-9.807,0Z" transform="translate(6.6 32.2)" fill="#04357a"/>
  </g>
</svg>
