<?xml version="1.0" encoding="utf-8"?>
<!-- Generator: Adobe Illustrator 23.0.0, SVG Export Plug-In . SVG Version: 6.00 Build 0)  -->
<svg version="1.1" id="Layer_1" xmlns="http://www.w3.org/2000/svg" xmlns:xlink="http://www.w3.org/1999/xlink" x="0px" y="0px"
	 viewBox="0 0 612 792" style="enable-background:new 0 0 612 792;" xml:space="preserve">
<style type="text/css">
	.st0{fill:#F3F4F5;stroke:#000000;stroke-width:7;stroke-linejoin:round;stroke-miterlimit:10;}
	.st1{fill:#F3F4F5;stroke:#000000;stroke-width:4;stroke-linejoin:round;stroke-miterlimit:10;}
	.st2{fill:none;stroke:#000000;stroke-width:7;stroke-linecap:round;stroke-linejoin:round;stroke-miterlimit:10;}
	.st3{fill:#A6D8DB;}
	.st4{fill:#F3F4F5;stroke:#000000;stroke-width:6;stroke-linejoin:round;stroke-miterlimit:10;}
	.st5{fill:#F3F4F5;stroke:#000000;stroke-width:5;stroke-linejoin:round;stroke-miterlimit:10;}
	.st6{fill:#70C8E0;}
	.st7{fill:none;stroke:#000000;stroke-width:5;stroke-linecap:round;stroke-miterlimit:10;}
	.st8{fill:none;stroke:#000000;stroke-width:4;stroke-linecap:round;stroke-miterlimit:10;}
	.st9{fill:none;stroke:#000000;stroke-width:6;stroke-linecap:round;stroke-miterlimit:10;}
	.st10{fill:none;stroke:#000000;stroke-width:15;stroke-linecap:round;stroke-linejoin:round;stroke-miterlimit:10;}
	.st11{fill:#F3F4F5;stroke:#000000;stroke-width:13;stroke-linejoin:round;stroke-miterlimit:10;}
	.st12{fill:#F3F4F5;stroke:#000000;stroke-width:10;stroke-linejoin:round;stroke-miterlimit:10;}
	.st13{fill:none;stroke:#000000;stroke-width:15;stroke-linecap:round;stroke-miterlimit:10;}
</style>
<g>
	<rect x="355.69" y="385.71" class="st0" width="177.06" height="361.42"/>
	<path class="st1" d="M533.94,675.41H348.69c-3.3,0-5.97-2.67-5.97-5.97v-3.35c0-3.3,2.67-5.97,5.97-5.97h185.25
		c3.3,0,5.97,2.67,5.97,5.97v3.35C539.91,672.73,537.24,675.41,533.94,675.41z"/>
	<rect x="396.54" y="700.62" class="st2" width="99.63" height="46.52"/>
	<g>
		<path class="st3" d="M411.06,491.32h-34.33c-1.81,0-3.27,1.39-3.27,3.1v22.15c0,1.71,1.46,3.1,3.27,3.1h34.33
			c1.81,0,3.27-1.39,3.27-3.1v-22.15C414.33,492.71,412.86,491.32,411.06,491.32z M407.79,513.47h-27.79v-15.95h27.79V513.47z"/>
		<path class="st3" d="M461.39,491.32h-34.33c-1.81,0-3.27,1.39-3.27,3.1v22.15c0,1.71,1.46,3.1,3.27,3.1h34.33
			c1.81,0,3.27-1.39,3.27-3.1v-22.15C464.66,492.71,463.2,491.32,461.39,491.32z M458.12,513.47h-27.79v-15.95h27.79V513.47z"/>
		<path class="st3" d="M511.72,491.32h-34.33c-1.81,0-3.27,1.39-3.27,3.1v22.15c0,1.71,1.46,3.1,3.27,3.1h34.33
			c1.81,0,3.27-1.39,3.27-3.1v-22.15C514.99,492.71,513.53,491.32,511.72,491.32z M508.45,513.47h-27.79v-15.95h27.79V513.47z"/>
	</g>
	<path class="st3" d="M411.06,533.41h-34.33c-1.81,0-3.27,1.39-3.27,3.1v22.15c0,1.71,1.46,3.1,3.27,3.1h34.33
		c1.81,0,3.27-1.39,3.27-3.1v-22.15C414.33,534.8,412.86,533.41,411.06,533.41z M407.79,555.56h-27.79v-15.95h27.79V555.56z"/>
	<path class="st3" d="M461.39,533.41h-34.33c-1.81,0-3.27,1.39-3.27,3.1v22.15c0,1.71,1.46,3.1,3.27,3.1h34.33
		c1.81,0,3.27-1.39,3.27-3.1v-22.15C464.66,534.8,463.2,533.41,461.39,533.41z M458.12,555.56h-27.79v-15.95h27.79V555.56z"/>
	<path class="st3" d="M511.72,533.41h-34.33c-1.81,0-3.27,1.39-3.27,3.1v22.15c0,1.71,1.46,3.1,3.27,3.1h34.33
		c1.81,0,3.27-1.39,3.27-3.1v-22.15C514.99,534.8,513.53,533.41,511.72,533.41z M508.45,555.56h-27.79v-15.95h27.79V555.56z"/>
	<path class="st3" d="M411.06,575.5h-34.33c-1.81,0-3.27,1.39-3.27,3.1v22.15c0,1.71,1.46,3.1,3.27,3.1h34.33
		c1.81,0,3.27-1.39,3.27-3.1V578.6C414.33,576.89,412.86,575.5,411.06,575.5z M407.79,597.65h-27.79V581.7h27.79V597.65z"/>
	<path class="st3" d="M461.39,575.5h-34.33c-1.81,0-3.27,1.39-3.27,3.1v22.15c0,1.71,1.46,3.1,3.27,3.1h34.33
		c1.81,0,3.27-1.39,3.27-3.1V578.6C464.66,576.89,463.19,575.5,461.39,575.5z M458.12,597.65h-27.79V581.7h27.79V597.65z"/>
	<path class="st3" d="M511.72,575.5h-34.33c-1.81,0-3.27,1.39-3.27,3.1v22.15c0,1.71,1.46,3.1,3.27,3.1h34.33
		c1.81,0,3.27-1.39,3.27-3.1V578.6C514.99,576.89,513.53,575.5,511.72,575.5z M508.45,597.65h-27.79V581.7h27.79V597.65z"/>
	<path class="st3" d="M411.05,615.7h-34.33c-1.81,0-3.27,1.39-3.27,3.1v22.15c0,1.71,1.46,3.1,3.27,3.1h34.33
		c1.81,0,3.27-1.39,3.27-3.1V618.8C414.32,617.09,412.86,615.7,411.05,615.7z M407.78,637.85h-27.79V621.9h27.79V637.85z"/>
	<path class="st3" d="M461.39,615.7h-34.33c-1.81,0-3.27,1.39-3.27,3.1v22.15c0,1.71,1.46,3.1,3.27,3.1h34.33
		c1.81,0,3.27-1.39,3.27-3.1V618.8C464.66,617.09,463.19,615.7,461.39,615.7z M458.12,637.85h-27.79V621.9h27.79V637.85z"/>
	<path class="st3" d="M511.72,615.7h-34.33c-1.81,0-3.27,1.39-3.27,3.1v22.15c0,1.71,1.46,3.1,3.27,3.1h34.33
		c1.81,0,3.27-1.39,3.27-3.1V618.8C514.99,617.09,513.53,615.7,511.72,615.7z M508.45,637.85h-27.79V621.9h27.79V637.85z"/>
	<path class="st4" d="M545.71,385.71H341.14c-0.15,0-0.26-0.12-0.26-0.26v-3.96c0-7.64,6.19-13.83,13.83-13.83h177.45
		c7.64,0,13.83,6.19,13.83,13.83v3.96C545.98,385.59,545.86,385.71,545.71,385.71z"/>
	<path class="st5" d="M491.03,367.66h-89.36c-0.12,0-0.22-0.1-0.22-0.22v-3.35c0-6.47,5.25-11.72,11.72-11.72h66.37
		c6.47,0,11.72,5.25,11.72,11.72v3.35C491.26,367.56,491.16,367.66,491.03,367.66z"/>
	<g>
		<path class="st3" d="M413.19,451.12h-34.33c-1.81,0-3.27,1.39-3.27,3.1v22.15c0,1.71,1.46,3.1,3.27,3.1h34.33
			c1.81,0,3.27-1.39,3.27-3.1v-22.15C416.46,452.51,414.99,451.12,413.19,451.12z M409.92,473.27h-27.79v-15.95h27.79V473.27z"/>
		<path class="st3" d="M463.52,451.12h-34.33c-1.81,0-3.27,1.39-3.27,3.1v22.15c0,1.71,1.46,3.1,3.27,3.1h34.33
			c1.81,0,3.27-1.39,3.27-3.1v-22.15C466.79,452.51,465.33,451.12,463.52,451.12z M460.25,473.27h-27.79v-15.95h27.79V473.27z"/>
		<path class="st3" d="M513.85,451.12h-34.33c-1.81,0-3.27,1.39-3.27,3.1v22.15c0,1.71,1.46,3.1,3.27,3.1h34.33
			c1.81,0,3.27-1.39,3.27-3.1v-22.15C517.12,452.51,515.66,451.12,513.85,451.12z M510.58,473.27h-27.79v-15.95h27.79V473.27z"/>
	</g>
	<g>
		<path class="st3" d="M413.19,408.48h-34.33c-1.81,0-3.27,1.39-3.27,3.1v22.15c0,1.71,1.46,3.1,3.27,3.1h34.33
			c1.81,0,3.27-1.39,3.27-3.1v-22.15C416.46,409.87,414.99,408.48,413.19,408.48z M409.92,430.63h-27.79v-15.95h27.79V430.63z"/>
		<path class="st3" d="M463.52,408.48h-34.33c-1.81,0-3.27,1.39-3.27,3.1v22.15c0,1.71,1.46,3.1,3.27,3.1h34.33
			c1.81,0,3.27-1.39,3.27-3.1v-22.15C466.79,409.87,465.33,408.48,463.52,408.48z M460.25,430.63h-27.79v-15.95h27.79V430.63z"/>
		<path class="st3" d="M513.85,408.48h-34.33c-1.81,0-3.27,1.39-3.27,3.1v22.15c0,1.71,1.46,3.1,3.27,3.1h34.33
			c1.81,0,3.27-1.39,3.27-3.1v-22.15C517.12,409.87,515.66,408.48,513.85,408.48z M510.58,430.63h-27.79v-15.95h27.79V430.63z"/>
	</g>
</g>
<g>
	<path class="st6" d="M148.45,644.33c0,0,11.13,21.71,3.45,38.9s-21.7,27.66-31.29,23.37c-9.59-4.29-11.13-21.71-3.45-38.9
		C124.85,650.5,148.45,644.33,148.45,644.33z"/>
	<line class="st7" x1="136.89" y1="667.72" x2="105.69" y2="738.32"/>
	<line class="st7" x1="141.5" y1="685.04" x2="120.3" y2="705.29"/>
	<g>
		<path class="st6" d="M38.85,643.55c0,0,23.36,7.03,30.42,24.5s4.88,34.82-4.86,38.75c-9.74,3.94-23.36-7.03-30.42-24.5
			S38.85,643.55,38.85,643.55z"/>
		<line class="st8" x1="47.68" y1="668.1" x2="76.9" y2="739.54"/>
		<ellipse class="st6" cx="91.68" cy="618.46" rx="33.05" ry="62.9"/>
		<line class="st7" x1="90.63" y1="597.2" x2="91.23" y2="735.79"/>
		<line class="st9" x1="110.89" y1="622.22" x2="90.98" y2="670.95"/>
		<line class="st9" x1="71.74" y1="614.71" x2="89.86" y2="640.78"/>
		<path class="st6" d="M129.18,746.99c0-0.05,0-0.1,0-0.16c0-22.4-18.15-40.55-40.55-40.55c-22.4,0-40.55,18.16-40.55,40.55
			c0,0.05,0,0.1,0,0.16H129.18z"/>
	</g>
</g>
<line class="st10" x1="93.18" y1="751.75" x2="452.14" y2="751.75"/>
<g>
	<rect x="135.03" y="203.09" class="st11" width="268.79" height="548.66"/>
	<path class="st12" d="M403.07,642.86H126.95c-6.41,0-11.61-5.2-11.61-11.61l0,0c0-6.41,5.2-11.61,11.61-11.61h276.13
		c6.41,0,11.61,5.2,11.61,11.61l0,0C414.68,637.67,409.49,642.86,403.07,642.86z"/>
	<rect x="197.04" y="681.13" class="st10" width="151.24" height="70.62"/>
	<g>
		<path class="st6" d="M219.08,363.41h-52.12c-2.74,0-4.96,2.11-4.96,4.7v33.63c0,2.6,2.22,4.7,4.96,4.7h52.12
			c2.74,0,4.96-2.11,4.96-4.7v-33.63C224.04,365.52,221.82,363.41,219.08,363.41z M214.11,397.04h-42.19v-24.22h42.19V397.04z"/>
		<path class="st6" d="M295.49,363.41h-52.12c-2.74,0-4.96,2.11-4.96,4.7v33.63c0,2.6,2.22,4.7,4.96,4.7h52.12
			c2.74,0,4.96-2.11,4.96-4.7v-33.63C300.45,365.52,298.23,363.41,295.49,363.41z M290.52,397.04h-42.19v-24.22h42.19V397.04z"/>
		<path class="st6" d="M371.9,363.41h-52.12c-2.74,0-4.96,2.11-4.96,4.7v33.63c0,2.6,2.22,4.7,4.96,4.7h52.12
			c2.74,0,4.96-2.11,4.96-4.7v-33.63C376.86,365.52,374.64,363.41,371.9,363.41z M366.93,397.04h-42.19v-24.22h42.19V397.04z"/>
	</g>
	<path class="st6" d="M219.08,427.31h-52.12c-2.74,0-4.96,2.11-4.96,4.7v33.63c0,2.6,2.22,4.7,4.96,4.7h52.12
		c2.74,0,4.96-2.11,4.96-4.7v-33.63C224.04,429.41,221.82,427.31,219.08,427.31z M214.11,460.93h-42.19v-24.22h42.19V460.93z"/>
	<path class="st6" d="M295.49,427.31h-52.12c-2.74,0-4.96,2.11-4.96,4.7v33.63c0,2.6,2.22,4.7,4.96,4.7h52.12
		c2.74,0,4.96-2.11,4.96-4.7v-33.63C300.45,429.41,298.23,427.31,295.49,427.31z M290.52,460.93h-42.19v-24.22h42.19V460.93z"/>
	<path class="st6" d="M371.9,427.31h-52.12c-2.74,0-4.96,2.11-4.96,4.7v33.63c0,2.6,2.22,4.7,4.96,4.7h52.12
		c2.74,0,4.96-2.11,4.96-4.7v-33.63C376.86,429.41,374.64,427.31,371.9,427.31z M366.93,460.93h-42.19v-24.22h42.19V460.93z"/>
	<path class="st6" d="M219.08,491.2h-52.12c-2.74,0-4.96,2.11-4.96,4.7v33.63c0,2.6,2.22,4.7,4.96,4.7h52.12
		c2.74,0,4.96-2.11,4.96-4.7V495.9C224.04,493.3,221.82,491.2,219.08,491.2z M214.11,524.83h-42.19v-24.22h42.19V524.83z"/>
	<path class="st6" d="M295.48,491.2h-52.12c-2.74,0-4.96,2.11-4.96,4.7v33.63c0,2.6,2.22,4.7,4.96,4.7h52.12
		c2.74,0,4.96-2.11,4.96-4.7V495.9C300.45,493.3,298.23,491.2,295.48,491.2z M290.52,524.83h-42.19v-24.22h42.19V524.83z"/>
	<path class="st6" d="M371.9,491.2h-52.12c-2.74,0-4.96,2.11-4.96,4.7v33.63c0,2.6,2.22,4.7,4.96,4.7h52.12
		c2.74,0,4.96-2.11,4.96-4.7V495.9C376.86,493.3,374.64,491.2,371.9,491.2z M366.93,524.83h-42.19v-24.22h42.19V524.83z"/>
	<path class="st6" d="M219.07,552.23h-52.12c-2.74,0-4.96,2.11-4.96,4.7v33.63c0,2.6,2.22,4.7,4.96,4.7h52.12
		c2.74,0,4.96-2.11,4.96-4.7v-33.63C224.04,554.34,221.82,552.23,219.07,552.23z M214.11,585.86h-42.19v-24.22h42.19V585.86z"/>
	<path class="st6" d="M295.48,552.23h-52.12c-2.74,0-4.96,2.11-4.96,4.7v33.63c0,2.6,2.22,4.7,4.96,4.7h52.12
		c2.74,0,4.96-2.11,4.96-4.7v-33.63C300.45,554.34,298.22,552.23,295.48,552.23z M290.52,585.86h-42.19v-24.22h42.19V585.86z"/>
	<path class="st6" d="M371.89,552.23h-52.12c-2.74,0-4.96,2.11-4.96,4.7v33.63c0,2.6,2.22,4.7,4.96,4.7h52.12
		c2.74,0,4.96-2.11,4.96-4.7v-33.63C376.86,554.34,374.64,552.23,371.89,552.23z M366.93,585.86h-42.19v-24.22h42.19V585.86z"/>
	<path class="st12" d="M423.46,203.09H112.97c-0.24,0-0.43-0.19-0.43-0.43v-4.18c0-12.58,10.2-22.79,22.79-22.79h265.79
		c12.58,0,22.79,10.2,22.79,22.79v4.18C423.9,202.9,423.7,203.09,423.46,203.09z"/>
	<path class="st12" d="M340.39,175.69H204.92c-0.24,0-0.43-0.19-0.43-0.43v0c0-12.58,10.2-22.79,22.79-22.79h90.77
		c12.58,0,22.79,10.2,22.79,22.79v0C340.83,175.49,340.63,175.69,340.39,175.69z"/>
	<g>
		<path class="st6" d="M222.31,302.38h-52.12c-2.74,0-4.96,2.11-4.96,4.7v33.63c0,2.6,2.22,4.7,4.96,4.7h52.12
			c2.74,0,4.96-2.11,4.96-4.7v-33.63C227.27,304.49,225.05,302.38,222.31,302.38z M217.35,336.01h-42.19v-24.22h42.19V336.01z"/>
		<path class="st6" d="M298.72,302.38H246.6c-2.74,0-4.96,2.11-4.96,4.7v33.63c0,2.6,2.22,4.7,4.96,4.7h52.12
			c2.74,0,4.96-2.11,4.96-4.7v-33.63C303.68,304.49,301.46,302.38,298.72,302.38z M293.76,336.01h-42.19v-24.22h42.19V336.01z"/>
		<path class="st6" d="M375.13,302.38h-52.12c-2.74,0-4.96,2.11-4.96,4.7v33.63c0,2.6,2.22,4.7,4.96,4.7h52.12
			c2.74,0,4.96-2.11,4.96-4.7v-33.63C380.09,304.49,377.87,302.38,375.13,302.38z M370.17,336.01h-42.19v-24.22h42.19V336.01z"/>
	</g>
	<g>
		<path class="st6" d="M222.31,237.65h-52.12c-2.74,0-4.96,2.11-4.96,4.7v33.63c0,2.6,2.22,4.7,4.96,4.7h52.12
			c2.74,0,4.96-2.11,4.96-4.7v-33.63C227.27,239.76,225.05,237.65,222.31,237.65z M217.35,271.28h-42.19v-24.22h42.19V271.28z"/>
		<path class="st6" d="M298.72,237.65H246.6c-2.74,0-4.96,2.11-4.96,4.7v33.63c0,2.6,2.22,4.7,4.96,4.7h52.12
			c2.74,0,4.96-2.11,4.96-4.7v-33.63C303.68,239.76,301.46,237.65,298.72,237.65z M293.76,271.28h-42.19v-24.22h42.19V271.28z"/>
		<path class="st6" d="M375.13,237.65h-52.12c-2.74,0-4.96,2.11-4.96,4.7v33.63c0,2.6,2.22,4.7,4.96,4.7h52.12
			c2.74,0,4.96-2.11,4.96-4.7v-33.63C380.09,239.76,377.87,237.65,375.13,237.65z M370.17,271.28h-42.19v-24.22h42.19V271.28z"/>
	</g>
</g>
<g>
	<path class="st6" d="M579.38,680.19c0,0,7.31,14.25,2.26,25.55c-5.05,11.29-14.25,18.17-20.55,15.35s-7.31-14.25-2.26-25.55
		S579.38,680.19,579.38,680.19z"/>
	<line class="st8" x1="571.79" y1="695.55" x2="551.3" y2="741.92"/>
	<line class="st8" x1="574.82" y1="706.93" x2="560.9" y2="720.23"/>
	<line class="st8" x1="562.72" y1="697.86" x2="564.91" y2="709.26"/>
	<ellipse class="st6" cx="542.11" cy="663.21" rx="21.71" ry="41.31"/>
	<line class="st7" x1="541.41" y1="649.24" x2="541.81" y2="740.26"/>
	<line class="st7" x1="554.72" y1="665.67" x2="541.65" y2="697.68"/>
	<line class="st7" x1="529.01" y1="660.75" x2="540.91" y2="677.86"/>
	<path class="st6" d="M566.73,747.61c0-0.03,0-0.07,0-0.1c0-14.71-11.92-26.63-26.63-26.63s-26.63,11.92-26.63,26.63
		c0,0.03,0,0.07,0,0.1H566.73z"/>
</g>
<line class="st13" x1="6.71" y1="751.75" x2="595.68" y2="751.75"/>
</svg>
