<svg xmlns="http://www.w3.org/2000/svg" width="146.999" height="119.438" viewBox="0 0 146.999 119.438">
  <g id="Group_512" data-name="Group 512" transform="translate(-11061 -2673.925)">
    <g id="earth-paradise_1_" data-name="earth-paradise (1)" transform="translate(11085.893 2673.925)">
      <g id="Group_426" data-name="Group 426" transform="translate(0 0)">
        <path id="Path_331" data-name="Path 331" d="M13.367,38.814l3.463,2.705L20.747,36.5H45.532l3.6,6.926,3.9-2.026-3.073-5.921,8.539-9.606-3.284-2.919L47.071,32.11H34.556l-.171-17.68a2.315,2.315,0,0,0,1.273.365,2.363,2.363,0,0,0,2.128-1.4,2.349,2.349,0,0,0,4.218.084,2.354,2.354,0,0,0,4.354.122,2.359,2.359,0,0,0,4.494-1.034,2.739,2.739,0,0,0-.033-.291h.028C50.791,6.555,42.755.428,33.157.525s-17.124,6.37-17.067,12.1c.031,0,.056,0,.087,0a2.351,2.351,0,0,0,4.481.656,2.351,2.351,0,0,0,4.218.084,2.354,2.354,0,0,0,4.351.122,2.347,2.347,0,0,0,3.412.972L32.81,32.11h-14.2Z" transform="translate(20.746 -0.524)" fill="#04357a"/>
        <path id="Path_332" data-name="Path 332" d="M34.4,25.432l1.319,2.187c.066-.046,7.051-4.167,12.321-1.429a19.772,19.772,0,0,0,9.223,2.281,18.483,18.483,0,0,0,7.089-1.33L63.3,24.815a17.231,17.231,0,0,1-14.087-.886C42.686,20.537,34.732,25.233,34.4,25.432Z" transform="translate(53.388 33.897)" fill="#04357a"/>
        <path id="Path_333" data-name="Path 333" d="M51.168,37.46c-4.382,2.953-11.632,1.472-11.7,1.46l-.526,2.5a24.66,24.66,0,0,0,4.752.441,16.124,16.124,0,0,0,8.9-2.281c3.772-2.544,6.76.98,7.087,1.386l2-1.585C60.079,37.347,55.818,34.341,51.168,37.46Z" transform="translate(60.432 54.711)" fill="#04357a"/>
        <path id="Path_334" data-name="Path 334" d="M39.334,42.953l1.276,2.2c5.859-3.381,8.539-.408,8.641-.291l1.97-1.623C51.063,43.052,47.156,38.441,39.334,42.953Z" transform="translate(61.045 62.263)" fill="#04357a"/>
        <path id="Path_335" data-name="Path 335" d="M42.035,33.675l-.549,2.5a7.842,7.842,0,0,0,1.684.2,6.694,6.694,0,0,0,3.333-.952c1.34-.694,2.4-1.245,6.122.618l1.141-2.287c-4.525-2.261-6.428-1.641-8.442-.6A4.026,4.026,0,0,1,42.035,33.675Z" transform="translate(64.385 48.65)" fill="#04357a"/>
        <path id="Path_336" data-name="Path 336" d="M51.507,26.327c.143-5.081-8.927,11.142-8.927,11.142H55.031S51.371,31.408,51.507,26.327Z" transform="translate(66.083 37.993)" fill="#04357a"/>
        <path id="Path_337" data-name="Path 337" d="M100.824,35.888c-1.256-6.188-5.8-10-11.877-10h-.209l.151,10.208c.914-.028,1.559-.02,1.934,1.82C92.13,44.361,85.494,60.4,71.191,66.2c-17.514,7.049-30.417,4.019-38.159.24A32.2,32.2,0,0,1,19.144,54l6.88-.758S12.195,35.225,11.595,30.978.7,56.033.7,56.033l7.648-.842c3.42,8.322,10.746,15.8,20.2,20.426A50.384,50.384,0,0,0,50.785,80.6a65.09,65.09,0,0,0,24.226-4.933C92.637,68.51,103.361,48.405,100.824,35.888Z" transform="translate(1.084 38.839)" fill="#04357a"/>
        <path id="Path_338" data-name="Path 338" d="M7.11,13.247C2.31,16.557,2.56,24.3,4.117,25.182c1.365.771,7.738-1.8,10.586-5.032l1.674,3.5-1.266.4L17.142,28.3l-1.067.342,2.363,4.946-1.023.327,2.6,5.431-.786.25,2.817,5.9-1.48.472,3.272,6.852-.661.212L25.7,58.312a31.89,31.89,0,1,0,58.18.493l2.932-3.884-1.427-.727,3.175-4.211-.972-.49,2.733-3.624-.942-.48L91.9,42.043l-.671-.342,2.287-3.037-.7-.355,1.97-2.618-.337-.166.462-.607c.674,2.95,2.72,5.354,3.782,5.454,1.406.125,4.458-5.165,2.182-8.83,1.975,1.72,4.668,3.723,5.214,2.447.48-1.1-.26-4.037-1.822-5.9,1.769-.773,2.741-1.746,1.34-2.886-1.549-1.271-3.455-.656-5.158.5.891-1.873,1.069-3.979-.906-5.673-1.669-1.437-2.534-.559-2.948,1.179A14.328,14.328,0,0,0,90.562,20.2c-1.419.25-.735,2.238,2.085,4.553-4.058-.75-7.886,3.08-7.567,4.262.278,1.031,4.736,2.9,7.794,2.733l-.954,2.491-.832-.421-1.166,3.024-.7-.355L87.872,40l-.676-.345-1.488,3.869-.513-.263-1.618,4.2-.975-.5-1.873,4.872-.439-.219-.26.671a32.164,32.164,0,0,0-11.66-9.5,1.6,1.6,0,0,0-.133-.14l-.054.054A31.705,31.705,0,0,0,54.658,39.68c-.709,0-1.411.033-2.108.077l0,0v0A31.823,31.823,0,0,0,30.887,50.375l-1.266-7.3-1.478.475L27.026,37.11l-1.437.457-1.026-5.931-1.021.327-.934-5.4-1.067.342-.8-4.645-.505.163-.189-1.079c3.774,2.332,8.337,2.725,9.483,1.758,1.526-1.286-1.028-9.736-7.133-11.188,3.764-.232,8.536-.891,7.73-2.743-.694-1.605-4.512-3.851-8.016-4.183C23.05,2.431,22.986.466,20.4.7c-2.868.26-4.1,2.807-4.565,5.693-1.1-2.8-3.131-5.122-6.875-4.869C5.793,1.74,5.862,3.5,7.284,5.69A19.631,19.631,0,0,0,.253,10.713C-.885,12.379,1.884,13.724,7.11,13.247ZM93.823,31.621l-.181.47-.686-.352A4.712,4.712,0,0,0,93.823,31.621ZM25.413,72.263a35.032,35.032,0,0,1,7.648-3.238c-.031.847-.061,1.689-.061,2.583,0,1.406.048,2.738.122,4.032a37.609,37.609,0,0,1-7.7-3.136C25.413,72.421,25.413,72.342,25.413,72.263Zm.265,3.348a44.225,44.225,0,0,0,7.658,2.84,54.087,54.087,0,0,0,1.717,9.19A26.805,26.805,0,0,1,28.08,83.8,28.955,28.955,0,0,1,25.678,75.611ZM30.945,88.7a39.69,39.69,0,0,0,5.137,2.141,37.633,37.633,0,0,0,2.218,5A29.586,29.586,0,0,1,30.945,88.7ZM45.857,63.885a72.757,72.757,0,0,0-9.96,1.623A52.25,52.25,0,0,1,37.849,55.14a50.967,50.967,0,0,1,9.572-1.922A75.825,75.825,0,0,0,45.857,63.885Zm1.827,26.762a51.6,51.6,0,0,1-9.555-1.917,49.423,49.423,0,0,1-2.067-9.59A74.361,74.361,0,0,0,46,80.682,68.459,68.459,0,0,0,47.684,90.648ZM45.7,66.537c-.074,1.577-.133,3.205-.133,4.938,0,2.338.082,4.514.219,6.551A71.118,71.118,0,0,1,35.8,76.374c-.11-1.513-.186-3.08-.186-4.765,0-1.148.031-2.256.079-3.325A69.438,69.438,0,0,1,45.7,66.537ZM43.215,98.518a25.7,25.7,0,0,1-3.927-6.712,56.432,56.432,0,0,0,9.149,1.552,36.366,36.366,0,0,0,3.044,7.314A28.967,28.967,0,0,1,43.215,98.518ZM55.138,66.054c1.871,0,3.606.061,5.277.158.107,1.8.181,3.667.181,5.678,0,2.287-.087,4.4-.225,6.393-1.781.107-3.642.179-5.653.179-2.238,0-4.313-.084-6.285-.217-.156-2.1-.248-4.338-.248-6.77,0-1.822.061-3.524.153-5.17C50.458,66.149,52.709,66.054,55.138,66.054Zm-6.625-2.389a72.921,72.921,0,0,1,1.659-10.685c1.4-.089,2.838-.153,4.384-.153,1.378,0,2.685.048,3.948.12a71.332,71.332,0,0,1,1.717,10.614c-1.61-.079-3.3-.133-5.083-.133C52.777,63.436,50.588,63.528,48.513,63.666ZM60.148,80.932A65.591,65.591,0,0,1,58.4,90.946c-1.133.054-2.312.092-3.545.092-1.539,0-2.978-.064-4.374-.158a64.611,64.611,0,0,1-1.8-10c1.906.117,3.9.2,6.043.2C56.633,81.083,58.435,81.027,60.148,80.932ZM54.531,100.61a28.151,28.151,0,0,1-3.249-7.043c1.146.054,2.338.084,3.573.084.96,0,1.868-.033,2.777-.064A31.007,31.007,0,0,1,54.531,100.61ZM66.481,98.36a29.072,29.072,0,0,1-8.965,2.353,37.773,37.773,0,0,0,2.942-7.294,56.776,56.776,0,0,0,9.723-1.567A25.563,25.563,0,0,1,66.481,98.36Zm-5.3-7.618a69.279,69.279,0,0,0,1.633-10A70.846,70.846,0,0,0,73.362,79.1a51.222,51.222,0,0,1-2.067,9.71A51.66,51.66,0,0,1,61.181,90.742Zm1.868-24.348a67.619,67.619,0,0,1,10.693,1.74c.051,1.023.077,2.075.077,3.175,0,1.769-.082,3.415-.2,5a66.477,66.477,0,0,1-10.6,1.779c.122-1.937.191-3.994.191-6.2C63.215,69.949,63.146,68.142,63.049,66.394Zm-.171-2.654a74.8,74.8,0,0,0-1.615-10.58,52.194,52.194,0,0,1,10.458,2.09,52.4,52.4,0,0,1,1.837,10.119A71.571,71.571,0,0,0,62.878,63.74Zm8.452,31.9a38.164,38.164,0,0,0,2.054-4.752,38.261,38.261,0,0,0,4.923-2.047A29.468,29.468,0,0,1,71.33,95.637Zm9.909-11.762a25.563,25.563,0,0,1-6.862,3.846A55.694,55.694,0,0,0,76.1,78.37a37.661,37.661,0,0,0,7.615-3.083A29.074,29.074,0,0,1,81.239,83.875Zm-4.93-8.345c.077-1.353.13-2.746.13-4.221,0-.84-.033-1.631-.054-2.429a31.724,31.724,0,0,1,7.464,3.244A29.348,29.348,0,0,1,76.309,75.53Zm5.367-15.289a29.04,29.04,0,0,1,2.169,8.835,38.914,38.914,0,0,0-7.61-3.006,56.878,56.878,0,0,0-1.5-9.736A25.3,25.3,0,0,1,81.676,60.241ZM78.922,55.2l-.054.128a37.978,37.978,0,0,0-5.035-2.156A38.154,38.154,0,0,0,71.6,47.7,29.474,29.474,0,0,1,78.922,55.2ZM66.775,44.916a27.188,27.188,0,0,1,3.938,7.291,56.831,56.831,0,0,0-10.131-1.73,43.389,43.389,0,0,0-3.037-8.046A29.142,29.142,0,0,1,66.775,44.916ZM54.061,42.3c.14,0,.276-.008.416-.01a36.545,36.545,0,0,1,3.3,8c-1.041-.046-2.105-.077-3.221-.077-1.273,0-2.5.033-3.677.089A38.945,38.945,0,0,1,54.061,42.3ZM42.886,44.776a29.057,29.057,0,0,1,8.1-2.246,45.064,45.064,0,0,0-2.9,7.983,55.913,55.913,0,0,0-9.19,1.575A27.138,27.138,0,0,1,42.886,44.776Zm-4.828,2.7a38.789,38.789,0,0,0-2.325,5.579,37.06,37.06,0,0,0-5.464,2.358A29.511,29.511,0,0,1,38.058,47.479ZM27.687,60.215l.048.048A24.1,24.1,0,0,1,34.8,56.229a58.051,58.051,0,0,0-1.577,9.981A42.216,42.216,0,0,0,25.5,69.2,28.9,28.9,0,0,1,27.687,60.215ZM15.5,19.1l.311.653-1.049.339A7.325,7.325,0,0,0,15.5,19.1Z" transform="translate(0 -0.274)" fill="#04357a"/>
      </g>
    </g>
    <g id="location-pin" transform="translate(11061 2737.893) rotate(-68)">
      <path id="Path_412" data-name="Path 412" d="M14.843,0h-.067A14.79,14.79,0,0,0,0,14.771c0,5.339,2.431,12.384,7.226,20.942a116.4,116.4,0,0,0,7.2,11.251.532.532,0,0,0,.426.214h.014a.532.532,0,0,0,.428-.237c.036-.054,3.615-5.459,7.146-12.07,4.766-8.923,7.182-15.686,7.182-20.1A14.79,14.79,0,0,0,14.843,0Zm6.82,15.131a6.854,6.854,0,1,1-6.854-6.854A6.862,6.862,0,0,1,21.664,15.131Z" transform="translate(0 0)" fill="#04357a"/>
    </g>
  </g>
</svg>
