<?xml version="1.0" encoding="utf-8"?>
<!-- Generator: Adobe Illustrator 23.0.0, SVG Export Plug-In . SVG Version: 6.00 Build 0)  -->
<svg version="1.1" id="Layer_1" xmlns="http://www.w3.org/2000/svg" xmlns:xlink="http://www.w3.org/1999/xlink" x="0px" y="0px"
	 viewBox="0 0 612 792" style="enable-background:new 0 0 612 792;" xml:space="preserve">
<style type="text/css">
	.st0{fill:#70C8E0;}
	.st1{fill:none;stroke:#000000;stroke-width:4;stroke-linecap:round;stroke-miterlimit:10;}
	.st2{fill:none;stroke:#000000;stroke-width:5;stroke-linecap:round;stroke-miterlimit:10;}
	.st3{fill:none;stroke:#000000;stroke-width:6;stroke-linecap:round;stroke-miterlimit:10;}
	.st4{fill:none;stroke:#000000;stroke-width:15;stroke-linecap:round;stroke-linejoin:round;stroke-miterlimit:10;}
	.st5{fill:#F3F4F5;stroke:#000000;stroke-width:13;stroke-linejoin:round;stroke-miterlimit:10;}
	.st6{fill:#F3F4F5;stroke:#000000;stroke-width:10;stroke-linejoin:round;stroke-miterlimit:10;}
	.st7{fill:none;stroke:#000000;stroke-width:15;stroke-linecap:round;stroke-miterlimit:10;}
</style>
<path class="st0" d="M69.86,640.28c0,0,23.36,7.03,30.42,24.5c7.06,17.47,4.88,34.82-4.86,38.75c-9.74,3.94-23.36-7.03-30.42-24.5
	C57.94,661.57,69.86,640.28,69.86,640.28z"/>
<line class="st1" x1="78.69" y1="664.83" x2="107.92" y2="736.27"/>
<line class="st1" x1="94.37" y1="673.52" x2="94.26" y2="702.84"/>
<line class="st1" x1="71.64" y1="677.22" x2="86.46" y2="686.85"/>
<path class="st0" d="M179.46,641.06c0,0,11.13,21.71,3.45,38.9s-21.7,27.66-31.29,23.37c-9.59-4.29-11.13-21.71-3.45-38.9
	S179.46,641.06,179.46,641.06z"/>
<line class="st2" x1="167.9" y1="664.45" x2="136.7" y2="735.05"/>
<line class="st2" x1="172.52" y1="681.78" x2="151.32" y2="702.03"/>
<line class="st2" x1="154.08" y1="667.96" x2="157.42" y2="685.32"/>
<ellipse class="st0" cx="122.7" cy="615.2" rx="33.05" ry="62.9"/>
<line class="st2" x1="121.65" y1="593.93" x2="122.24" y2="732.53"/>
<line class="st3" x1="141.9" y1="618.95" x2="122" y2="667.68"/>
<line class="st3" x1="102.76" y1="611.45" x2="120.88" y2="637.51"/>
<path class="st0" d="M160.19,743.72c0-0.05,0-0.1,0-0.16c0-22.4-18.15-40.55-40.55-40.55c-22.4,0-40.55,18.15-40.55,40.55
	c0,0.05,0,0.1,0,0.16H160.19z"/>
<line class="st4" x1="124.19" y1="745.62" x2="483.16" y2="745.62"/>
<rect x="166.05" y="196.96" class="st5" width="268.79" height="548.66"/>
<path class="st6" d="M434.09,636.73H157.96c-6.41,0-11.61-5.2-11.61-11.61v0c0-6.41,5.2-11.61,11.61-11.61h276.13
	c6.41,0,11.61,5.2,11.61,11.61v0C445.7,631.53,440.5,636.73,434.09,636.73z"/>
<rect x="228.05" y="675" class="st4" width="151.24" height="70.62"/>
<g>
	<path class="st0" d="M250.09,357.28h-52.12c-2.74,0-4.96,2.11-4.96,4.7v33.63c0,2.6,2.22,4.7,4.96,4.7h52.12
		c2.74,0,4.96-2.11,4.96-4.7v-33.63C255.06,359.39,252.83,357.28,250.09,357.28z M245.13,390.91h-42.19v-24.22h42.19V390.91z"/>
	<path class="st0" d="M326.5,357.28h-52.12c-2.74,0-4.96,2.11-4.96,4.7v33.63c0,2.6,2.22,4.7,4.96,4.7h52.12
		c2.74,0,4.96-2.11,4.96-4.7v-33.63C331.46,359.39,329.24,357.28,326.5,357.28z M321.54,390.91h-42.19v-24.22h42.19V390.91z"/>
	<path class="st0" d="M402.91,357.28h-52.12c-2.74,0-4.96,2.11-4.96,4.7v33.63c0,2.6,2.22,4.7,4.96,4.7h52.12
		c2.74,0,4.96-2.11,4.96-4.7v-33.63C407.88,359.39,405.65,357.28,402.91,357.28z M397.95,390.91h-42.19v-24.22h42.19V390.91z"/>
</g>
<path class="st0" d="M250.09,421.17h-52.12c-2.74,0-4.96,2.11-4.96,4.7v33.63c0,2.6,2.22,4.7,4.96,4.7h52.12
	c2.74,0,4.96-2.11,4.96-4.7v-33.63C255.06,423.28,252.83,421.17,250.09,421.17z M245.13,454.8h-42.19v-24.22h42.19V454.8z"/>
<path class="st0" d="M326.5,421.17h-52.12c-2.74,0-4.96,2.11-4.96,4.7v33.63c0,2.6,2.22,4.7,4.96,4.7h52.12
	c2.74,0,4.96-2.11,4.96-4.7v-33.63C331.46,423.28,329.24,421.17,326.5,421.17z M321.54,454.8h-42.19v-24.22h42.19V454.8z"/>
<path class="st0" d="M402.91,421.17h-52.12c-2.74,0-4.96,2.11-4.96,4.7v33.63c0,2.6,2.22,4.7,4.96,4.7h52.12
	c2.74,0,4.96-2.11,4.96-4.7v-33.63C407.88,423.28,405.65,421.17,402.91,421.17z M397.95,454.8h-42.19v-24.22h42.19V454.8z"/>
<path class="st0" d="M250.09,485.07h-52.12c-2.74,0-4.96,2.11-4.96,4.7v33.63c0,2.6,2.22,4.7,4.96,4.7h52.12
	c2.74,0,4.96-2.11,4.96-4.7v-33.63C255.05,487.17,252.83,485.07,250.09,485.07z M245.13,518.69h-42.19v-24.22h42.19V518.69z"/>
<path class="st0" d="M326.5,485.07h-52.12c-2.74,0-4.96,2.11-4.96,4.7v33.63c0,2.6,2.22,4.7,4.96,4.7h52.12
	c2.74,0,4.96-2.11,4.96-4.7v-33.63C331.46,487.17,329.24,485.07,326.5,485.07z M321.54,518.69h-42.19v-24.22h42.19V518.69z"/>
<path class="st0" d="M402.91,485.07h-52.12c-2.74,0-4.96,2.11-4.96,4.7v33.63c0,2.6,2.22,4.7,4.96,4.7h52.12
	c2.74,0,4.96-2.11,4.96-4.7v-33.63C407.87,487.17,405.65,485.07,402.91,485.07z M397.95,518.69h-42.19v-24.22h42.19V518.69z"/>
<path class="st0" d="M250.09,546.1h-52.12c-2.74,0-4.96,2.11-4.96,4.7v33.63c0,2.6,2.22,4.7,4.96,4.7h52.12
	c2.74,0,4.96-2.11,4.96-4.7V550.8C255.05,548.2,252.83,546.1,250.09,546.1z M245.12,579.73h-42.19v-24.22h42.19V579.73z"/>
<path class="st0" d="M326.5,546.1h-52.12c-2.74,0-4.96,2.11-4.96,4.7v33.63c0,2.6,2.22,4.7,4.96,4.7h52.12
	c2.74,0,4.96-2.11,4.96-4.7V550.8C331.46,548.2,329.24,546.1,326.5,546.1z M321.53,579.73h-42.19v-24.22h42.19V579.73z"/>
<path class="st0" d="M402.91,546.1h-52.12c-2.74,0-4.96,2.11-4.96,4.7v33.63c0,2.6,2.22,4.7,4.96,4.7h52.12
	c2.74,0,4.96-2.11,4.96-4.7V550.8C407.87,548.2,405.65,546.1,402.91,546.1z M397.95,579.73h-42.19v-24.22h42.19V579.73z"/>
<path class="st6" d="M454.48,196.96H143.99c-0.24,0-0.43-0.19-0.43-0.43v-4.18c0-12.58,10.2-22.79,22.79-22.79h265.79
	c12.58,0,22.79,10.2,22.79,22.79v4.18C454.91,196.76,454.72,196.96,454.48,196.96z"/>
<path class="st6" d="M371.41,169.56H235.94c-0.24,0-0.43-0.19-0.43-0.43v0c0-12.58,10.2-22.79,22.79-22.79h90.77
	c12.58,0,22.79,10.2,22.79,22.79v0C371.84,169.36,371.65,169.56,371.41,169.56z"/>
<g>
	<path class="st0" d="M253.33,296.25H201.2c-2.74,0-4.96,2.11-4.96,4.7v33.63c0,2.6,2.22,4.7,4.96,4.7h52.12
		c2.74,0,4.96-2.11,4.96-4.7v-33.63C258.29,298.36,256.07,296.25,253.33,296.25z M248.36,329.88h-42.19v-24.22h42.19V329.88z"/>
	<path class="st0" d="M329.73,296.25h-52.12c-2.74,0-4.96,2.11-4.96,4.7v33.63c0,2.6,2.22,4.7,4.96,4.7h52.12
		c2.74,0,4.96-2.11,4.96-4.7v-33.63C334.7,298.36,332.48,296.25,329.73,296.25z M324.77,329.88h-42.19v-24.22h42.19V329.88z"/>
	<path class="st0" d="M406.15,296.25h-52.12c-2.74,0-4.96,2.11-4.96,4.7v33.63c0,2.6,2.22,4.7,4.96,4.7h52.12
		c2.74,0,4.96-2.11,4.96-4.7v-33.63C411.11,298.36,408.89,296.25,406.15,296.25z M401.18,329.88h-42.19v-24.22h42.19V329.88z"/>
</g>
<g>
	<path class="st0" d="M253.33,231.52H201.2c-2.74,0-4.96,2.11-4.96,4.7v33.63c0,2.6,2.22,4.7,4.96,4.7h52.12
		c2.74,0,4.96-2.11,4.96-4.7v-33.63C258.29,233.63,256.07,231.52,253.33,231.52z M248.36,265.15h-42.19v-24.22h42.19V265.15z"/>
	<path class="st0" d="M329.73,231.52h-52.12c-2.74,0-4.96,2.11-4.96,4.7v33.63c0,2.6,2.22,4.7,4.96,4.7h52.12
		c2.74,0,4.96-2.11,4.96-4.7v-33.63C334.7,233.63,332.48,231.52,329.73,231.52z M324.77,265.15h-42.19v-24.22h42.19V265.15z"/>
	<path class="st0" d="M406.15,231.52h-52.12c-2.74,0-4.96,2.11-4.96,4.7v33.63c0,2.6,2.22,4.7,4.96,4.7h52.12
		c2.74,0,4.96-2.11,4.96-4.7v-33.63C411.11,233.63,408.89,231.52,406.15,231.52z M401.18,265.15h-42.19v-24.22h42.19V265.15z"/>
</g>
<path class="st0" d="M510.18,658.38c0,0,9.72,18.94,3.01,33.95c-6.71,15.01-18.93,24.14-27.3,20.4c-8.37-3.74-9.72-18.94-3.01-33.95
	C489.58,663.77,510.18,658.38,510.18,658.38z"/>
<line class="st1" x1="500.09" y1="678.79" x2="472.86" y2="740.4"/>
<line class="st1" x1="504.12" y1="693.91" x2="485.62" y2="711.58"/>
<line class="st1" x1="488.03" y1="681.85" x2="490.94" y2="697"/>
<ellipse class="st0" cx="460.64" cy="635.81" rx="28.84" ry="54.89"/>
<line class="st2" x1="459.72" y1="617.25" x2="460.24" y2="738.2"/>
<line class="st2" x1="477.4" y1="639.09" x2="460.03" y2="681.61"/>
<line class="st2" x1="443.24" y1="632.54" x2="459.05" y2="655.29"/>
<path class="st0" d="M493.36,747.97c0-0.05,0-0.09,0-0.14c0-19.54-15.84-35.39-35.39-35.39c-19.54,0-35.39,15.84-35.39,35.39
	c0,0.05,0,0.09,0,0.14H493.36z"/>
<line class="st7" x1="37.72" y1="745.62" x2="530.74" y2="745.62"/>
</svg>
