<svg id="favorites" xmlns="http://www.w3.org/2000/svg" width="71.329" height="70.267" viewBox="0 0 71.329 70.267">
  <g id="Group_373" data-name="Group 373" transform="translate(4.12 0)">
    <g id="Group_372" data-name="Group 372" transform="translate(0 0)">
      <path id="Path_301" data-name="Path 301" d="M91.239,31.38a4.7,4.7,0,0,0-2.607-8.023L73.025,21.089a.94.94,0,0,1-.708-.515L65.337,6.432a4.7,4.7,0,0,0-8.436,0l-6.98,14.143a.941.941,0,0,1-.708.515L33.606,23.357A4.7,4.7,0,0,0,31,31.38L42.292,42.389a.941.941,0,0,1,.271.833L39.9,58.766a4.7,4.7,0,0,0,6.825,4.959l13.959-7.339a.941.941,0,0,1,.876,0l13.96,7.339a4.7,4.7,0,0,0,6.825-4.959L79.675,43.222a.942.942,0,0,1,.271-.833ZM75.967,43.858,78.633,59.4a.941.941,0,0,1-1.365.991l-13.96-7.339a4.7,4.7,0,0,0-4.378,0L44.971,60.394a.941.941,0,0,1-1.365-.992l2.666-15.544a4.7,4.7,0,0,0-1.353-4.164L33.626,28.686a.941.941,0,0,1,.521-1.6l15.607-2.268A4.7,4.7,0,0,0,53.3,22.24L60.276,8.1a.941.941,0,0,1,1.687,0h0l6.98,14.143a4.7,4.7,0,0,0,3.542,2.573l15.607,2.268a.941.941,0,0,1,.521,1.6L77.319,39.695A4.7,4.7,0,0,0,75.967,43.858Z" transform="translate(-29.574 -3.81)" fill="#02BCD1"/>
    </g>
  </g>
  <g id="Group_375" data-name="Group 375" transform="translate(52.661 2.262)">
    <g id="Group_374" data-name="Group 374">
      <path id="Path_302" data-name="Path 302" d="M382.986,20.4a1.882,1.882,0,0,0-2.628.416l-2,2.749a1.882,1.882,0,0,0,3.044,2.212l2-2.749A1.882,1.882,0,0,0,382.986,20.4Z" transform="translate(-378.001 -20.045)" fill="#02BCD1"/>
    </g>
  </g>
  <g id="Group_377" data-name="Group 377" transform="translate(12.899 2.251)">
    <g id="Group_376" data-name="Group 376">
      <path id="Path_303" data-name="Path 303" d="M97.991,23.491l-2-2.749a1.882,1.882,0,0,0-3.044,2.212l2,2.749a1.882,1.882,0,1,0,3.044-2.212Z" transform="translate(-92.59 -19.966)" fill="#02BCD1"/>
    </g>
  </g>
  <g id="Group_379" data-name="Group 379" transform="translate(0 40.914)">
    <g id="Group_378" data-name="Group 378" transform="translate(0)">
      <path id="Path_304" data-name="Path 304" d="M6.9,298.794a1.882,1.882,0,0,0-2.371-1.208L1.3,298.636a1.882,1.882,0,1,0,1.163,3.579l3.232-1.05A1.882,1.882,0,0,0,6.9,298.794Z" transform="translate(0 -297.493)" fill="#02BCD1"/>
    </g>
  </g>
  <g id="Group_381" data-name="Group 381" transform="translate(33.783 63.106)">
    <g id="Group_380" data-name="Group 380">
      <path id="Path_305" data-name="Path 305" d="M244.381,456.786a1.882,1.882,0,0,0-1.882,1.882v3.4a1.882,1.882,0,0,0,3.763,0v-3.4A1.881,1.881,0,0,0,244.381,456.786Z" transform="translate(-242.499 -456.786)" fill="#02BCD1"/>
    </g>
  </g>
  <g id="Group_383" data-name="Group 383" transform="translate(64.333 40.917)">
    <g id="Group_382" data-name="Group 382">
      <path id="Path_306" data-name="Path 306" d="M467.478,298.656l-3.232-1.05a1.882,1.882,0,0,0-1.163,3.579l3.232,1.05a1.882,1.882,0,0,0,1.163-3.579Z" transform="translate(-461.783 -297.513)" fill="#02BCD1"/>
    </g>
  </g>
</svg>
