<svg id="taxi" xmlns="http://www.w3.org/2000/svg" width="118.672" height="103.575" viewBox="0 0 118.672 103.575">
  <path id="Path_283" data-name="Path 283" d="M81.282,278.185a5.021,5.021,0,0,0,5.146-3.986,5.668,5.668,0,0,0-3.209-6.234l-8.912-4.075c-2.287-1.049-6.568-2.522-9.551-.609-1.786,1.146-2.691,3.187-2.691,6.067v3a5.838,5.838,0,0,0,5.821,5.841h13.4Zm-13.4-3.476a2.357,2.357,0,0,1-2.344-2.364v-3c0-1.619.367-2.676,1.092-3.14a3.017,3.017,0,0,1,1.625-.381,11.739,11.739,0,0,1,4.6,1.224l8.913,4.076a2.194,2.194,0,0,1,1.25,2.368,1.659,1.659,0,0,1-1.8,1.214Z" transform="translate(-47.679 -209.092)" fill="#fff"/>
  <path id="Path_284" data-name="Path 284" d="M113.372,109.466s0-19.023,0-19.281c.012-3-.073-3.362-1.522-6.47l-3.084-6.6h.682a8,8,0,0,0,0-16.01h-8.158l-4.268-9.141c-1.774-3.8-2.791-5.725-4.449-6.928-1.782-1.294-3.888-1.387-7.144-1.387H78.938l-4.555-8.912-.079-.155a3.022,3.022,0,0,0-2.69-2.01H46.8a2.757,2.757,0,0,0-2.952,1.81c-.038.076-.079.159-.124.249l-4.611,9.018H32.62c-3.256,0-5.362.093-7.145,1.387-1.658,1.2-2.677,3.126-4.455,6.929L16.753,61.1H8.6a8,8,0,0,0,0,16.01h.681L6.2,83.715c-1.455,3.109-1.541,3.472-1.529,6.474,0,.257,0,19.42,0,19.42A6.417,6.417,0,0,0,6.41,122.2h.624v8.823a5.126,5.126,0,0,0,5.12,5.12H27.637a5.126,5.126,0,0,0,5.12-5.12V122.2h9.722a4.4,4.4,0,0,0,4.03,2.647H72.156a4.4,4.4,0,0,0,4.03-2.647h9.728v8.823a5.126,5.126,0,0,0,5.12,5.12h15.484a5.126,5.126,0,0,0,5.12-5.12V122.2h.617a6.416,6.416,0,0,0,1.116-12.734ZM109.45,64.578a4.528,4.528,0,0,1,0,9.056h-2.306l-4.229-9.056ZM46.82,36.209l.083-.164H71.149l.051.1,3.833,7.5H43.018ZM8.6,73.634a4.528,4.528,0,0,1,0-9.056h6.53L10.9,73.634Zm-5.123,42.15a2.94,2.94,0,0,1,2.933-2.94h13.2a1.738,1.738,0,1,0,0-3.477H8.148s0-18.931,0-19.192c-.009-2.4-.009-2.4,1.2-4.988L24.17,53.432c1.545-3.3,2.395-4.9,3.347-5.586.86-.624,2.208-.724,5.1-.724H85.43c2.894,0,4.243.1,5.1.724.951.69,1.8,2.28,3.341,5.585L108.7,85.186c1.206,2.586,1.206,2.586,1.2,4.986,0,.262,0,19.2,0,19.2H27.69a1.738,1.738,0,1,0,0,3.477H42.117v5.88H6.41a2.94,2.94,0,0,1-2.933-2.94Zm25.8,15.239a1.645,1.645,0,0,1-1.643,1.643H12.154a1.645,1.645,0,0,1-1.643-1.643V122.2H29.28Zm42.876-9.652H46.509a.924.924,0,0,1-.915-.909v-7.618H73.072v7.618A.913.913,0,0,1,72.156,121.371Zm36.005,9.652a1.645,1.645,0,0,1-1.643,1.643H91.035a1.645,1.645,0,0,1-1.643-1.643V122.2h18.77v8.823Zm4.094-12.3H76.548v-5.88h35.707a2.94,2.94,0,0,1,0,5.88Z" transform="translate(0 -32.568)" fill="#fff"/>
  <path id="Path_285" data-name="Path 285" d="M356.564,263.884l-8.913,4.076a5.672,5.672,0,0,0-3.212,6.238,5.018,5.018,0,0,0,5.143,3.983h13.4a5.838,5.838,0,0,0,5.821-5.841v-3c0-2.88-.906-4.921-2.694-6.067C363.125,261.361,358.846,262.836,356.564,263.884Zm8.765,5.459v3a2.357,2.357,0,0,1-2.344,2.364H349.638a1.655,1.655,0,0,1-1.794-1.21,2.2,2.2,0,0,1,1.253-2.372l8.916-4.077c2.667-1.225,5.109-1.556,6.222-.842C364.961,266.667,365.329,267.724,365.329,269.343Z" transform="translate(-264.519 -209.088)" fill="#fff"/>
  <path id="Path_286" data-name="Path 286" d="M81.845,139.259H116.71a1.738,1.738,0,1,0,0-3.477H84.532L92.8,117.375c.54-1.2.814-1.2,2.594-1.2h50.334c1.784,0,2.06,0,2.6,1.2l8.269,18.407H124.8a1.738,1.738,0,1,0,0,3.477h34.488a1.738,1.738,0,0,0,1.586-2.451l-9.37-20.857c-1.463-3.26-3.852-3.257-5.78-3.25H95.4c-1.916-.007-4.31-.01-5.773,3.25l-9.37,20.857a1.739,1.739,0,0,0,1.586,2.451Z" transform="translate(-61.539 -94.127)" fill="#fff"/>
  <path id="Path_287" data-name="Path 287" d="M210.532,262.361H179.478a3.015,3.015,0,0,0-2.322,1.121,2.513,2.513,0,0,0-.484,2.157l2.48,10.1a2.946,2.946,0,0,0,2.808,2.454H208.05a2.9,2.9,0,0,0,2.8-2.448l2.49-10.111a2.51,2.51,0,0,0-.486-2.151A3.012,3.012,0,0,0,210.532,262.361Zm-13.8,3.477h4.278v8.877h-4.278Zm-3.477,8.877h-4.285v-8.877h4.285ZM180.3,265.838h5.194v8.877h-3.014Zm27.222,8.877h-3.034v-8.877h5.22Z" transform="translate(-135.669 -209.099)" fill="#fff"/>
</svg>
