<svg id="travel-agent" xmlns="http://www.w3.org/2000/svg" width="103.575" height="103.575" viewBox="0 0 103.575 103.575">
  <path id="Path_275" data-name="Path 275" d="M17.726,72.167h1.726v5.179H22.9V72.167H71.24V68.715H19.452V51.452H72.966V48H17.726A1.726,1.726,0,0,0,16,49.726V70.441A1.726,1.726,0,0,0,17.726,72.167Z" transform="translate(-16 -41.095)" fill="#fff"/>
  <path id="Path_276" data-name="Path 276" d="M393.894,48h-1.726V68.715H368v3.452h20.715v51.787h3.453V72.167h1.726a1.726,1.726,0,0,0,1.726-1.726V49.726A1.726,1.726,0,0,0,393.894,48Z" transform="translate(-292.045 -41.095)" fill="#fff"/>
  <path id="Path_277" data-name="Path 277" d="M117.849,240.966h-1.726v-6.9H112.67v6.9H64.335v-55.24A1.726,1.726,0,0,0,62.609,184H28.084a1.726,1.726,0,0,0-1.726,1.726v55.24H22.9V187.452H19.452v53.514H17.726A1.726,1.726,0,0,0,16,242.692V249.6a1.726,1.726,0,0,0,1.726,1.726H117.849a1.726,1.726,0,0,0,1.726-1.726v-6.905A1.726,1.726,0,0,0,117.849,240.966ZM29.81,187.452H60.882v53.514H29.81Zm86.312,60.419H19.452v-3.452h96.67Z" transform="translate(-16 -147.749)" fill="#fff"/>
  <path id="Path_278" data-name="Path 278" d="M264.01,38.309a1.726,1.726,0,0,0,.578,1.486l9.335,8.188a1.726,1.726,0,0,0,2.1.132l28.626-19.337a1.725,1.725,0,0,0,.544-.6l3.687-6.67a1.742,1.742,0,0,0,.126-.288A4.035,4.035,0,0,0,305.392,16a1.732,1.732,0,0,0-.372.027l-6.164,1.122h0a5.239,5.239,0,0,0-3.006.929l-4.137,2.868-15.1-2.074a1.726,1.726,0,0,0-1.309.359l-4.719,3.752a1.726,1.726,0,0,0,.324,2.906L281.1,30.8l-5.581,5.272-6.176-1.1a1.722,1.722,0,0,0-1.131.186L264.9,36.984a1.726,1.726,0,0,0-.885,1.325Zm5.327.178,6.433,1.142a1.726,1.726,0,0,0,1.487-.445l8.036-7.59a1.726,1.726,0,0,0-.436-2.81l-9.974-4.809,1.988-1.581,15.036,2.065a1.728,1.728,0,0,0,1.218-.292l4.689-3.252a1.822,1.822,0,0,1,1.12-.312,1.765,1.765,0,0,0,.372-.027l6.063-1.1a.62.62,0,0,1,.266.224.6.6,0,0,1,.116.345l-3.376,6.107L275.2,44.509l-6.48-5.683Z" transform="translate(-210.486 -16)" fill="#fff"/>
  <path id="Path_279" data-name="Path 279" d="M57.726,80A1.726,1.726,0,0,0,56,81.726v6.9a1.726,1.726,0,0,0,1.726,1.726H95.7a1.726,1.726,0,0,0,1.726-1.726v-6.9A1.726,1.726,0,0,0,95.7,80Zm36.251,6.9H59.452V83.452H93.977Z" transform="translate(-47.369 -66.19)" fill="#fff"/>
  <path id="Path_280" data-name="Path 280" d="M256,185.726v46.609a1.726,1.726,0,0,0,1.726,1.726H295.7a1.726,1.726,0,0,0,1.726-1.726V185.726A1.726,1.726,0,0,0,295.7,184H257.726A1.726,1.726,0,0,0,256,185.726Zm37.978,44.882H259.453v-3.453h34.525Zm0-43.156V223.7H259.453V187.452Z" transform="translate(-204.212 -147.749)" fill="#fff"/>
  <path id="Path_281" data-name="Path 281" d="M118.441,226.357h-.918l-8.113-9.736a1.726,1.726,0,0,0-2.652,0l-8.114,9.736h-.918A1.726,1.726,0,0,0,96,228.083v10.357a1.726,1.726,0,0,0,1.726,1.726h20.715a1.726,1.726,0,0,0,1.726-1.726V228.083A1.726,1.726,0,0,0,118.441,226.357Zm-10.357-5.934,4.946,5.934h-9.891Zm8.631,16.291H99.452v-6.9h17.262Z" transform="translate(-78.738 -172.843)" fill="#fff"/>
  <path id="Path_282" data-name="Path 282" d="M96,344h3.452V350.9H96Z" transform="translate(-78.738 -273.224)" fill="#fff"/>
</svg>
