<?xml version="1.0" encoding="utf-8"?>
<!-- Generator: Adobe Illustrator 23.0.0, SVG Export Plug-In . SVG Version: 6.00 Build 0)  -->
<svg version="1.1" id="Layer_1" xmlns="http://www.w3.org/2000/svg" xmlns:xlink="http://www.w3.org/1999/xlink" x="0px" y="0px"
	 viewBox="0 0 612 792" style="enable-background:new 0 0 612 792;" xml:space="preserve">
<style type="text/css">
	.st0{fill:#F3F4F5;stroke:#000000;stroke-width:7;stroke-linejoin:round;stroke-miterlimit:10;}
	.st1{fill:#F3F4F5;stroke:#000000;stroke-width:4;stroke-linejoin:round;stroke-miterlimit:10;}
	.st2{fill:none;stroke:#000000;stroke-width:7;stroke-linecap:round;stroke-linejoin:round;stroke-miterlimit:10;}
	.st3{fill:#A6D8DB;}
	.st4{fill:#F3F4F5;stroke:#000000;stroke-width:6;stroke-linejoin:round;stroke-miterlimit:10;}
	.st5{fill:#F3F4F5;stroke:#000000;stroke-width:5;stroke-linejoin:round;stroke-miterlimit:10;}
	.st6{fill:#70C8E0;}
	.st7{fill:none;stroke:#000000;stroke-width:5;stroke-linecap:round;stroke-miterlimit:10;}
	.st8{fill:none;stroke:#000000;stroke-width:4;stroke-linecap:round;stroke-miterlimit:10;}
	.st9{fill:none;stroke:#000000;stroke-width:6;stroke-linecap:round;stroke-miterlimit:10;}
	.st10{fill:none;stroke:#000000;stroke-width:15;stroke-linecap:round;stroke-linejoin:round;stroke-miterlimit:10;}
	.st11{fill:#F3F4F5;stroke:#000000;stroke-width:13;stroke-linejoin:round;stroke-miterlimit:10;}
	.st12{fill:#F3F4F5;stroke:#000000;stroke-width:10;stroke-linejoin:round;stroke-miterlimit:10;}
	.st13{fill:none;stroke:#000000;stroke-width:15;stroke-linecap:round;stroke-miterlimit:10;}
</style>
<g>
	<rect x="353.26" y="396.28" class="st0" width="177.06" height="361.42"/>
	<path class="st1" d="M531.5,685.97H346.25c-3.3,0-5.97-2.67-5.97-5.97v-3.35c0-3.3,2.67-5.97,5.97-5.97H531.5
		c3.3,0,5.97,2.67,5.97,5.97V680C537.47,683.3,534.8,685.97,531.5,685.97z"/>
	<rect x="394.1" y="711.18" class="st2" width="99.63" height="46.52"/>
	<g>
		<path class="st3" d="M408.62,501.89h-34.33c-1.81,0-3.27,1.39-3.27,3.1v22.15c0,1.71,1.46,3.1,3.27,3.1h34.33
			c1.81,0,3.27-1.39,3.27-3.1v-22.15C411.89,503.27,410.42,501.89,408.62,501.89z M405.35,524.04h-27.79v-15.95h27.79V524.04z"/>
		<path class="st3" d="M458.95,501.89h-34.33c-1.81,0-3.27,1.39-3.27,3.1v22.15c0,1.71,1.46,3.1,3.27,3.1h34.33
			c1.81,0,3.27-1.39,3.27-3.1v-22.15C462.22,503.27,460.76,501.89,458.95,501.89z M455.68,524.04h-27.79v-15.95h27.79V524.04z"/>
		<path class="st3" d="M509.29,501.89h-34.33c-1.81,0-3.27,1.39-3.27,3.1v22.15c0,1.71,1.46,3.1,3.27,3.1h34.33
			c1.81,0,3.27-1.39,3.27-3.1v-22.15C512.56,503.27,511.09,501.89,509.29,501.89z M506.02,524.04h-27.79v-15.95h27.79V524.04z"/>
	</g>
	<path class="st3" d="M408.62,543.97h-34.33c-1.81,0-3.27,1.39-3.27,3.1v22.15c0,1.71,1.46,3.1,3.27,3.1h34.33
		c1.81,0,3.27-1.39,3.27-3.1v-22.15C411.89,545.36,410.42,543.97,408.62,543.97z M405.35,566.13h-27.79v-15.95h27.79V566.13z"/>
	<path class="st3" d="M458.95,543.97h-34.33c-1.81,0-3.27,1.39-3.27,3.1v22.15c0,1.71,1.46,3.1,3.27,3.1h34.33
		c1.81,0,3.27-1.39,3.27-3.1v-22.15C462.22,545.36,460.76,543.97,458.95,543.97z M455.68,566.13h-27.79v-15.95h27.79V566.13z"/>
	<path class="st3" d="M509.29,543.97h-34.33c-1.81,0-3.27,1.39-3.27,3.1v22.15c0,1.71,1.46,3.1,3.27,3.1h34.33
		c1.81,0,3.27-1.39,3.27-3.1v-22.15C512.56,545.36,511.09,543.97,509.29,543.97z M506.02,566.13h-27.79v-15.95h27.79V566.13z"/>
	<path class="st3" d="M408.62,586.06h-34.33c-1.81,0-3.27,1.39-3.27,3.1v22.15c0,1.71,1.46,3.1,3.27,3.1h34.33
		c1.81,0,3.27-1.39,3.27-3.1v-22.15C411.89,587.45,410.42,586.06,408.62,586.06z M405.35,608.21h-27.79v-15.95h27.79V608.21z"/>
	<path class="st3" d="M458.95,586.06h-34.33c-1.81,0-3.27,1.39-3.27,3.1v22.15c0,1.71,1.46,3.1,3.27,3.1h34.33
		c1.81,0,3.27-1.39,3.27-3.1v-22.15C462.22,587.45,460.76,586.06,458.95,586.06z M455.68,608.21h-27.79v-15.95h27.79V608.21z"/>
	<path class="st3" d="M509.29,586.06h-34.33c-1.81,0-3.27,1.39-3.27,3.1v22.15c0,1.71,1.46,3.1,3.27,3.1h34.33
		c1.81,0,3.27-1.39,3.27-3.1v-22.15C512.56,587.45,511.09,586.06,509.29,586.06z M506.02,608.21h-27.79v-15.95h27.79V608.21z"/>
	<path class="st3" d="M408.62,626.27h-34.33c-1.81,0-3.27,1.39-3.27,3.1v22.15c0,1.71,1.46,3.1,3.27,3.1h34.33
		c1.81,0,3.27-1.39,3.27-3.1v-22.15C411.89,627.65,410.42,626.27,408.62,626.27z M405.35,648.42h-27.79v-15.95h27.79V648.42z"/>
	<path class="st3" d="M458.95,626.27h-34.33c-1.81,0-3.27,1.39-3.27,3.1v22.15c0,1.71,1.46,3.1,3.27,3.1h34.33
		c1.81,0,3.27-1.39,3.27-3.1v-22.15C462.22,627.65,460.76,626.27,458.95,626.27z M455.68,648.42h-27.79v-15.95h27.79V648.42z"/>
	<path class="st3" d="M509.28,626.27h-34.33c-1.81,0-3.27,1.39-3.27,3.1v22.15c0,1.71,1.46,3.1,3.27,3.1h34.33
		c1.81,0,3.27-1.39,3.27-3.1v-22.15C512.55,627.65,511.09,626.27,509.28,626.27z M506.01,648.42h-27.79v-15.95h27.79V648.42z"/>
	<path class="st4" d="M543.28,396.28H338.7c-0.15,0-0.26-0.12-0.26-0.26v-3.96c0-7.64,6.19-13.83,13.83-13.83h177.45
		c7.64,0,13.83,6.19,13.83,13.83v3.96C543.54,396.16,543.42,396.28,543.28,396.28z"/>
	<path class="st5" d="M488.6,378.23h-89.36c-0.12,0-0.22-0.1-0.22-0.22v-3.35c0-6.47,5.25-11.72,11.72-11.72h66.37
		c6.47,0,11.72,5.25,11.72,11.72V378C488.82,378.13,488.72,378.23,488.6,378.23z"/>
	<g>
		<path class="st3" d="M410.75,461.68h-34.33c-1.81,0-3.27,1.39-3.27,3.1v22.15c0,1.71,1.46,3.1,3.27,3.1h34.33
			c1.81,0,3.27-1.39,3.27-3.1v-22.15C414.02,463.07,412.55,461.68,410.75,461.68z M407.48,483.83h-27.79v-15.95h27.79V483.83z"/>
		<path class="st3" d="M461.08,461.68h-34.33c-1.81,0-3.27,1.39-3.27,3.1v22.15c0,1.71,1.46,3.1,3.27,3.1h34.33
			c1.81,0,3.27-1.39,3.27-3.1v-22.15C464.35,463.07,462.89,461.68,461.08,461.68z M457.81,483.83h-27.79v-15.95h27.79V483.83z"/>
		<path class="st3" d="M511.42,461.68h-34.33c-1.81,0-3.27,1.39-3.27,3.1v22.15c0,1.71,1.46,3.1,3.27,3.1h34.33
			c1.81,0,3.27-1.39,3.27-3.1v-22.15C514.69,463.07,513.22,461.68,511.42,461.68z M508.15,483.83h-27.79v-15.95h27.79V483.83z"/>
	</g>
	<g>
		<path class="st3" d="M410.75,419.04h-34.33c-1.81,0-3.27,1.39-3.27,3.1v22.15c0,1.71,1.46,3.1,3.27,3.1h34.33
			c1.81,0,3.27-1.39,3.27-3.1v-22.15C414.02,420.43,412.55,419.04,410.75,419.04z M407.48,441.2h-27.79v-15.95h27.79V441.2z"/>
		<path class="st3" d="M461.08,419.04h-34.33c-1.81,0-3.27,1.39-3.27,3.1v22.15c0,1.71,1.46,3.1,3.27,3.1h34.33
			c1.81,0,3.27-1.39,3.27-3.1v-22.15C464.35,420.43,462.89,419.04,461.08,419.04z M457.81,441.2h-27.79v-15.95h27.79V441.2z"/>
		<path class="st3" d="M511.42,419.04h-34.33c-1.81,0-3.27,1.39-3.27,3.1v22.15c0,1.71,1.46,3.1,3.27,3.1h34.33
			c1.81,0,3.27-1.39,3.27-3.1v-22.15C514.69,420.43,513.22,419.04,511.42,419.04z M508.15,441.2h-27.79v-15.95h27.79V441.2z"/>
	</g>
</g>
<g>
	<path class="st6" d="M76.48,663.73c0,0,11.13,21.71,3.45,38.9S58.23,730.29,48.64,726c-9.59-4.29-11.13-21.71-3.45-38.9
		C52.88,669.9,76.48,663.73,76.48,663.73z"/>
	<line class="st7" x1="64.92" y1="687.12" x2="33.72" y2="757.72"/>
	<line class="st7" x1="69.53" y1="704.44" x2="48.34" y2="724.69"/>
	<g>
		<path class="st6" d="M-33.12,662.95c0,0,23.36,7.03,30.42,24.5s4.88,34.82-4.86,38.75c-9.74,3.94-23.36-7.03-30.42-24.5
			S-33.12,662.95-33.12,662.95z"/>
		<line class="st8" x1="-24.29" y1="687.5" x2="4.94" y2="758.94"/>
		<ellipse class="st6" cx="19.72" cy="637.87" rx="33.05" ry="62.9"/>
		<line class="st7" x1="18.66" y1="616.6" x2="19.26" y2="755.19"/>
		<line class="st9" x1="38.92" y1="641.62" x2="19.02" y2="690.35"/>
		<line class="st9" x1="-0.22" y1="634.11" x2="17.89" y2="660.18"/>
		<path class="st6" d="M57.21,766.39c0-0.05,0-0.1,0-0.16c0-22.4-18.15-40.55-40.55-40.55c-22.4,0-40.55,18.16-40.55,40.55
			c0,0.05,0,0.1,0,0.16H57.21z"/>
	</g>
</g>
<line class="st10" x1="90.74" y1="762.31" x2="449.7" y2="762.31"/>
<g>
	<rect x="132.59" y="213.65" class="st11" width="268.79" height="548.66"/>
	<path class="st12" d="M400.64,653.43H124.51c-6.41,0-11.61-5.2-11.61-11.61l0,0c0-6.41,5.2-11.61,11.61-11.61h276.13
		c6.41,0,11.61,5.2,11.61,11.61l0,0C412.25,648.23,407.05,653.43,400.64,653.43z"/>
	<rect x="194.6" y="691.7" class="st10" width="151.24" height="70.62"/>
	<g>
		<path class="st6" d="M216.64,373.98h-52.12c-2.74,0-4.96,2.11-4.96,4.7v33.63c0,2.6,2.22,4.7,4.96,4.7h52.12
			c2.74,0,4.96-2.11,4.96-4.7v-33.63C221.6,376.08,219.38,373.98,216.64,373.98z M211.67,407.61h-42.19v-24.22h42.19V407.61z"/>
		<path class="st6" d="M293.05,373.98h-52.12c-2.74,0-4.96,2.11-4.96,4.7v33.63c0,2.6,2.22,4.7,4.96,4.7h52.12
			c2.74,0,4.96-2.11,4.96-4.7v-33.63C298.01,376.08,295.79,373.98,293.05,373.98z M288.08,407.61h-42.19v-24.22h42.19V407.61z"/>
		<path class="st6" d="M369.46,373.98h-52.12c-2.74,0-4.96,2.11-4.96,4.7v33.63c0,2.6,2.22,4.7,4.96,4.7h52.12
			c2.74,0,4.96-2.11,4.96-4.7v-33.63C374.42,376.08,372.2,373.98,369.46,373.98z M364.5,407.61H322.3v-24.22h42.19V407.61z"/>
	</g>
	<path class="st6" d="M216.64,437.87h-52.12c-2.74,0-4.96,2.11-4.96,4.7v33.63c0,2.6,2.22,4.7,4.96,4.7h52.12
		c2.74,0,4.96-2.11,4.96-4.7v-33.63C221.6,439.98,219.38,437.87,216.64,437.87z M211.67,471.5h-42.19v-24.22h42.19V471.5z"/>
	<path class="st6" d="M293.05,437.87h-52.12c-2.74,0-4.96,2.11-4.96,4.7v33.63c0,2.6,2.22,4.7,4.96,4.7h52.12
		c2.74,0,4.96-2.11,4.96-4.7v-33.63C298.01,439.98,295.79,437.87,293.05,437.87z M288.08,471.5h-42.19v-24.22h42.19V471.5z"/>
	<path class="st6" d="M369.46,437.87h-52.12c-2.74,0-4.96,2.11-4.96,4.7v33.63c0,2.6,2.22,4.7,4.96,4.7h52.12
		c2.74,0,4.96-2.11,4.96-4.7v-33.63C374.42,439.98,372.2,437.87,369.46,437.87z M364.5,471.5H322.3v-24.22h42.19V471.5z"/>
	<path class="st6" d="M216.64,501.76h-52.12c-2.74,0-4.96,2.11-4.96,4.7v33.63c0,2.6,2.22,4.7,4.96,4.7h52.12
		c2.74,0,4.96-2.11,4.96-4.7v-33.63C221.6,503.87,219.38,501.76,216.64,501.76z M211.67,535.39h-42.19v-24.22h42.19V535.39z"/>
	<path class="st6" d="M293.05,501.76h-52.12c-2.74,0-4.96,2.11-4.96,4.7v33.63c0,2.6,2.22,4.7,4.96,4.7h52.12
		c2.74,0,4.96-2.11,4.96-4.7v-33.63C298.01,503.87,295.79,501.76,293.05,501.76z M288.08,535.39h-42.19v-24.22h42.19V535.39z"/>
	<path class="st6" d="M369.46,501.76h-52.12c-2.74,0-4.96,2.11-4.96,4.7v33.63c0,2.6,2.22,4.7,4.96,4.7h52.12
		c2.74,0,4.96-2.11,4.96-4.7v-33.63C374.42,503.87,372.2,501.76,369.46,501.76z M364.49,535.39H322.3v-24.22h42.19V535.39z"/>
	<path class="st6" d="M216.64,562.79h-52.12c-2.74,0-4.96,2.11-4.96,4.7v33.63c0,2.6,2.22,4.7,4.96,4.7h52.12
		c2.74,0,4.96-2.11,4.96-4.7V567.5C221.6,564.9,219.38,562.79,216.64,562.79z M211.67,596.42h-42.19V572.2h42.19V596.42z"/>
	<path class="st6" d="M293.04,562.79h-52.12c-2.74,0-4.96,2.11-4.96,4.7v33.63c0,2.6,2.22,4.7,4.96,4.7h52.12
		c2.74,0,4.96-2.11,4.96-4.7V567.5C298.01,564.9,295.79,562.79,293.04,562.79z M288.08,596.42h-42.19V572.2h42.19V596.42z"/>
	<path class="st6" d="M369.46,562.79h-52.12c-2.74,0-4.96,2.11-4.96,4.7v33.63c0,2.6,2.22,4.7,4.96,4.7h52.12
		c2.74,0,4.96-2.11,4.96-4.7V567.5C374.42,564.9,372.2,562.79,369.46,562.79z M364.49,596.42H322.3V572.2h42.19V596.42z"/>
	<path class="st12" d="M421.02,213.65H110.53c-0.24,0-0.43-0.19-0.43-0.43v-4.18c0-12.58,10.2-22.79,22.79-22.79h265.79
		c12.58,0,22.79,10.2,22.79,22.79v4.18C421.46,213.46,421.26,213.65,421.02,213.65z"/>
	<path class="st12" d="M337.95,186.25H202.49c-0.24,0-0.43-0.19-0.43-0.43v0c0-12.58,10.2-22.79,22.79-22.79h90.77
		c12.58,0,22.79,10.2,22.79,22.79v0C338.39,186.06,338.19,186.25,337.95,186.25z"/>
	<g>
		<path class="st6" d="M219.87,312.95h-52.12c-2.74,0-4.96,2.11-4.96,4.7v33.63c0,2.6,2.22,4.7,4.96,4.7h52.12
			c2.74,0,4.96-2.11,4.96-4.7v-33.63C224.84,315.05,222.61,312.95,219.87,312.95z M214.91,346.57h-42.19v-24.22h42.19V346.57z"/>
		<path class="st6" d="M296.28,312.95h-52.12c-2.74,0-4.96,2.11-4.96,4.7v33.63c0,2.6,2.22,4.7,4.96,4.7h52.12
			c2.74,0,4.96-2.11,4.96-4.7v-33.63C301.25,315.05,299.02,312.95,296.28,312.95z M291.32,346.57h-42.19v-24.22h42.19V346.57z"/>
		<path class="st6" d="M372.69,312.95h-52.12c-2.74,0-4.96,2.11-4.96,4.7v33.63c0,2.6,2.22,4.7,4.96,4.7h52.12
			c2.74,0,4.96-2.11,4.96-4.7v-33.63C377.66,315.05,375.43,312.95,372.69,312.95z M367.73,346.57h-42.19v-24.22h42.19V346.57z"/>
	</g>
	<g>
		<path class="st6" d="M219.87,248.22h-52.12c-2.74,0-4.96,2.11-4.96,4.7v33.63c0,2.6,2.22,4.7,4.96,4.7h52.12
			c2.74,0,4.96-2.11,4.96-4.7v-33.63C224.84,250.32,222.61,248.22,219.87,248.22z M214.91,281.84h-42.19v-24.22h42.19V281.84z"/>
		<path class="st6" d="M296.28,248.22h-52.12c-2.74,0-4.96,2.11-4.96,4.7v33.63c0,2.6,2.22,4.7,4.96,4.7h52.12
			c2.74,0,4.96-2.11,4.96-4.7v-33.63C301.25,250.32,299.02,248.22,296.28,248.22z M291.32,281.84h-42.19v-24.22h42.19V281.84z"/>
		<path class="st6" d="M372.69,248.22h-52.12c-2.74,0-4.96,2.11-4.96,4.7v33.63c0,2.6,2.22,4.7,4.96,4.7h52.12
			c2.74,0,4.96-2.11,4.96-4.7v-33.63C377.66,250.32,375.43,248.22,372.69,248.22z M367.73,281.84h-42.19v-24.22h42.19V281.84z"/>
	</g>
</g>
<g>
	<path class="st6" d="M576.95,690.76c0,0,7.31,14.25,2.26,25.55s-14.25,18.17-20.55,15.35c-6.3-2.82-7.31-14.25-2.26-25.55
		C561.45,694.81,576.95,690.76,576.95,690.76z"/>
	<line class="st8" x1="569.35" y1="706.12" x2="548.86" y2="752.48"/>
	<line class="st8" x1="572.38" y1="717.5" x2="558.46" y2="730.79"/>
	<line class="st8" x1="560.28" y1="708.42" x2="562.47" y2="719.82"/>
	<ellipse class="st6" cx="539.67" cy="673.77" rx="21.71" ry="41.31"/>
	<line class="st7" x1="538.98" y1="659.81" x2="539.37" y2="750.83"/>
	<line class="st7" x1="552.28" y1="676.24" x2="539.21" y2="708.24"/>
	<line class="st7" x1="526.57" y1="671.31" x2="538.47" y2="688.43"/>
	<path class="st6" d="M564.29,758.18c0-0.03,0-0.07,0-0.1c0-14.71-11.92-26.63-26.63-26.63c-14.71,0-26.63,11.92-26.63,26.63
		c0,0.03,0,0.07,0,0.1H564.29z"/>
</g>
<line class="st13" x1="4.27" y1="762.31" x2="593.24" y2="762.31"/>
<rect x="32.66" y="435.64" class="st0" width="156.28" height="319.01"/>
<path class="st1" d="M189.29,691.34H27.18c-3.3,0-5.97-2.67-5.97-5.97v-1.56c0-3.3,2.67-5.97,5.97-5.97h162.11
	c3.3,0,5.97,2.67,5.97,5.97v1.56C195.26,688.67,192.59,691.34,189.29,691.34z"/>
<rect x="68.71" y="713.59" class="st2" width="87.94" height="41.06"/>
<g>
	<path class="st3" d="M81.53,528.86H51.22c-1.59,0-2.89,1.22-2.89,2.74v19.55c0,1.51,1.29,2.74,2.89,2.74h30.31
		c1.59,0,2.89-1.22,2.89-2.74V531.6C84.41,530.08,83.12,528.86,81.53,528.86z M78.64,548.41H54.11v-14.08h24.53V548.41z"/>
	<path class="st3" d="M125.95,528.86H95.65c-1.59,0-2.89,1.23-2.89,2.74v19.55c0,1.51,1.29,2.73,2.89,2.74h30.31
		c1.59,0,2.89-1.22,2.89-2.74V531.6C128.84,530.08,127.55,528.86,125.95,528.86z M123.07,548.41H98.53v-14.08h24.53V548.41z"/>
	<path class="st3" d="M170.38,528.86h-30.31c-1.59,0-2.89,1.22-2.89,2.74v19.55c0,1.51,1.29,2.74,2.89,2.74h30.31
		c1.59,0,2.89-1.22,2.89-2.74V531.6C173.27,530.08,171.98,528.86,170.38,528.86z M167.5,548.41h-24.53v-14.08h24.53V548.41z"/>
</g>
<path class="st3" d="M81.53,566.01H51.22c-1.59,0-2.89,1.22-2.89,2.74v19.55c0,1.51,1.29,2.74,2.89,2.74h30.31
	c1.59,0,2.89-1.22,2.89-2.74v-19.55C84.41,567.23,83.12,566.01,81.53,566.01z M78.64,585.56H54.11v-14.08h24.53V585.56z"/>
<path class="st3" d="M125.95,566.01H95.65c-1.59,0-2.89,1.22-2.89,2.74v19.55c0,1.51,1.29,2.73,2.89,2.74h30.31
	c1.59,0,2.89-1.22,2.89-2.74v-19.55C128.84,567.23,127.55,566.01,125.95,566.01z M123.07,585.56H98.53v-14.08h24.53V585.56z"/>
<path class="st3" d="M170.38,566.01h-30.31c-1.59,0-2.89,1.22-2.89,2.74v19.55c0,1.51,1.29,2.74,2.89,2.74h30.31
	c1.59,0,2.89-1.22,2.89-2.74v-19.55C173.27,567.23,171.98,566.01,170.38,566.01z M167.5,585.56h-24.53v-14.08h24.53V585.56z"/>
<path class="st3" d="M81.53,603.16H51.22c-1.59,0-2.89,1.22-2.89,2.74v19.55c0,1.51,1.29,2.74,2.89,2.74h30.31
	c1.59,0,2.89-1.22,2.89-2.74v-19.55C84.41,604.38,83.12,603.16,81.53,603.16z M78.64,622.71H54.11v-14.08h24.53V622.71z"/>
<path class="st3" d="M125.95,603.16H95.65c-1.59,0-2.89,1.23-2.89,2.74v19.55c0,1.51,1.29,2.73,2.89,2.74h30.31
	c1.59,0,2.89-1.22,2.89-2.74v-19.55C128.84,604.38,127.55,603.16,125.95,603.16z M123.07,622.71H98.53v-14.08h24.53V622.71z"/>
<path class="st3" d="M170.38,603.16h-30.31c-1.59,0-2.89,1.22-2.89,2.74v19.55c0,1.51,1.29,2.74,2.89,2.74h30.31
	c1.59,0,2.89-1.22,2.89-2.74v-19.55C173.27,604.38,171.98,603.16,170.38,603.16z M167.5,622.71h-24.53v-14.08h24.53V622.71z"/>
<path class="st3" d="M81.53,638.64H51.22c-1.59,0-2.89,1.22-2.89,2.74v19.55c0,1.51,1.29,2.74,2.89,2.74h30.31
	c1.59,0,2.89-1.22,2.89-2.74v-19.55C84.41,639.87,83.12,638.64,81.53,638.64z M78.64,658.2H54.11v-14.08h24.53V658.2z"/>
<path class="st3" d="M125.95,638.64H95.65c-1.59,0-2.89,1.23-2.89,2.74v19.55c0,1.51,1.29,2.73,2.89,2.74h30.31
	c1.59,0,2.89-1.22,2.89-2.74v-19.55C128.84,639.87,127.55,638.64,125.95,638.64z M123.07,658.2H98.53v-14.08h24.53V658.2z"/>
<path class="st3" d="M170.38,638.64h-30.31c-1.59,0-2.89,1.22-2.89,2.74v19.55c0,1.51,1.29,2.74,2.89,2.74h30.31
	c1.59,0,2.89-1.22,2.89-2.74v-19.55C173.27,639.87,171.98,638.64,170.38,638.64z M167.49,658.2h-24.53v-14.08h24.53V658.2z"/>
<path class="st4" d="M200.35,435.64H19.85c-0.15,0-0.26-0.12-0.26-0.26v-1.84c0-7.64,6.19-13.83,13.83-13.83h153.38
	c7.64,0,13.83,6.19,13.83,13.83v1.84C200.62,435.52,200.5,435.64,200.35,435.64z"/>
<path class="st5" d="M152.09,419.71H73.27c-0.12,0-0.22-0.1-0.22-0.22v-1.56c0-6.47,5.25-11.72,11.72-11.72h55.84
	c6.47,0,11.72,5.25,11.72,11.72v1.56C152.32,419.61,152.22,419.71,152.09,419.71z"/>
<g>
	<path class="st3" d="M83.41,493.37H53.1c-1.59,0-2.89,1.22-2.89,2.74v19.55c0,1.51,1.29,2.74,2.89,2.74h30.31
		c1.59,0,2.89-1.22,2.89-2.74v-19.55C86.29,494.6,85,493.37,83.41,493.37z M80.52,512.93H55.99v-14.08h24.53V512.93z"/>
	<path class="st3" d="M127.83,493.37H97.53c-1.59,0-2.89,1.23-2.89,2.74v19.55c0,1.51,1.29,2.73,2.89,2.74h30.31
		c1.59,0,2.89-1.22,2.89-2.74v-19.55C130.72,494.6,129.43,493.37,127.83,493.37z M124.95,512.93h-24.53v-14.08h24.53V512.93z"/>
	<path class="st3" d="M172.26,493.37h-30.31c-1.59,0-2.89,1.22-2.89,2.74v19.55c0,1.51,1.29,2.74,2.89,2.74h30.31
		c1.59,0,2.89-1.22,2.89-2.74v-19.55C175.15,494.6,173.86,493.37,172.26,493.37z M169.38,512.93h-24.53v-14.08h24.53V512.93z"/>
</g>
<g>
	<path class="st3" d="M83.41,455.74H53.1c-1.59,0-2.89,1.22-2.89,2.74v19.55c0,1.51,1.29,2.74,2.89,2.74h30.31
		c1.59,0,2.89-1.22,2.89-2.74v-19.55C86.29,456.96,85,455.74,83.41,455.74z M80.52,475.29H55.99v-14.08h24.53V475.29z"/>
	<path class="st3" d="M127.83,455.74H97.53c-1.59,0-2.89,1.23-2.89,2.74v19.55c0,1.51,1.29,2.73,2.89,2.74h30.31
		c1.59,0,2.89-1.22,2.89-2.74v-19.55C130.72,456.96,129.43,455.74,127.83,455.74z M124.95,475.29h-24.53v-14.08h24.53V475.29z"/>
	<path class="st3" d="M172.26,455.74h-30.31c-1.59,0-2.89,1.22-2.89,2.74v19.55c0,1.51,1.29,2.74,2.89,2.74h30.31
		c1.59,0,2.89-1.22,2.89-2.74v-19.55C175.15,456.96,173.86,455.74,172.26,455.74z M169.38,475.29h-24.53v-14.08h24.53V475.29z"/>
</g>
</svg>
